<?xml version="1.0" encoding="utf-8"?>
<!-- Generator: Adobe Illustrator 19.1.0, SVG Export Plug-In . SVG Version: 6.00 Build 0)  -->
<svg version="1.1" id="Layer_1" xmlns="http://www.w3.org/2000/svg" xmlns:xlink="http://www.w3.org/1999/xlink" x="0px" y="0px"
	 viewBox="0 0 43.7 45.3" style="enable-background:new 0 0 43.7 45.3;" xml:space="preserve">
<style type="text/css">
	.st0{fill:#1C75BC;}
</style>
<g>
	<path class="st0" d="M10.2,37.1c4.5-0.4,11.2-4.2,16.7-9.1c-1.2,0.1-2.4,0.2-3.7,0.5C15.2,30,7.1,35,8.6,36.7c0,0,0.1,0.1,0.1,0.1
		c0.1,0.1,0.2,0.1,0.2,0.2c-0.1-0.1-0.2-0.1-0.2-0.2C9,37,9.2,37.1,10.2,37.1z"/>
	<path class="st0" d="M11.7,39.1c0.6,0.4,0.9,0.6,1.6,0.9c0.1,0,0.1,0.1,0.2,0.1c-0.5-0.2-0.8-0.4-1.1-0.6
		C12.2,39.4,12,39.3,11.7,39.1z"/>
	<path class="st0" d="M10.6,38.4C10.6,38.4,10.6,38.4,10.6,38.4c-0.3-0.2-0.6-0.5-1-0.8C10,37.9,10.3,38.1,10.6,38.4z"/>
	<path class="st0" d="M14.6,40.6c0.3,0.1,0.6,0.3,0.9,0.4c0,0,0,0,0,0c-0.1,0-0.2-0.1-0.3-0.1C14.9,40.7,14.8,40.6,14.6,40.6z"/>
	<path class="st0" d="M36.6,33c0.2-1.4-0.4-2.6-1.7-3.5c-1.7,1.8-3.6,3.6-5.6,5.1c1.9,0.3,2.7,1.3,2.1,2.5c-0.1,0.3-0.3,0.6-0.5,0.8
		C33,36.5,34.9,34.9,36.6,33z"/>
	<path class="st0" d="M40.3,29.5c0.1-0.4,0.3-0.8,0.4-1.2c0.1-0.3,0.2-0.5,0.2-0.8c0,0,0-0.1,0-0.1c0,0,0,0,0,0c0,0,0,0.1,0,0.1
		C40.8,28,40.6,28.7,40.3,29.5z"/>
	<path class="st0" d="M3.2,28.1C3.2,28.1,3.2,28.2,3.2,28.1C3.2,28.2,3.2,28.1,3.2,28.1C3.2,28.1,3.2,28.1,3.2,28.1z"/>
	<path class="st0" d="M4,30.3c0.1,0.1,0.1,0.3,0.2,0.4c-0.2-0.5-0.5-1.1-0.7-1.7C3.7,29.5,3.9,30,4,30.3z"/>
	<path class="st0" d="M5.6,23.7c5-1.2,10.7-5.1,14.3-9.1C12.4,16,5.3,19,3,21.8c-0.6,0.7-0.6,1-0.6,1.3C2.4,23.4,2.6,24.2,5.6,23.7z
		"/>
	<path class="st0" d="M37.7,34.3C37.7,34.3,37.7,34.2,37.7,34.3l0.1-0.2C37.8,34.1,37.8,34.2,37.7,34.3
		C37.7,34.2,37.7,34.2,37.7,34.3z"/>
	<path class="st0" d="M29.7,13.7c-1.2,2.5-3.3,5.2-6.3,7.9c3.2-0.5,6.5-0.5,9.3,0c1.6-2.2,2.8-4.5,3.4-6.7
		C34.2,14.2,32,13.9,29.7,13.7z"/>
	<path class="st0" d="M38.7,32.8c0.3-0.4,0.5-0.8,0.9-1.5c-0.3,0.6-0.5,1-0.7,1.3C38.8,32.6,38.8,32.7,38.7,32.8z"/>
	<path class="st0" d="M40.1,28.2c0.9-1.7,1.5-3.5,1.6-5.3c0,0,0,0,0,0c0,0.6-0.1,1.4-0.2,2.3c0.1-0.7,0.2-1.5,0.2-2.5
		c-0.1-1.7-0.5-3.1-1.2-4.3c-0.1,2-0.8,4.1-1.9,6C39.5,25.6,40,26.8,40.1,28.2z"/>
	<path class="st0" d="M30.8,8.2c1.9,0.3,3.7,0.9,5.2,1.8c-0.4-1.2-1-2.2-2-3.2c-0.2-0.2-0.6-0.5-0.9-0.7C33.1,6.1,33,6,32.9,5.9
		c-1.4-0.8-2.9-1.4-4.6-1.7C29.8,5.2,30.6,6.6,30.8,8.2z"/>
	<path class="st0" d="M6.6,10c-0.2,0.3-0.4,0.5-0.6,0.7c0,0.1-0.1,0.1-0.1,0.2c0.1-0.1,0.2-0.3,0.3-0.4C6.3,10.4,6.4,10.2,6.6,10z"
		/>
	<path class="st0" d="M22,4.4c-0.3-0.1-0.5-0.3-0.8-0.3c-2.4,0.3-4.7,0.8-6.8,1.5c-0.1,0.2-0.1,0.4-0.1,0.5
		c-1.6,0.8-2.7,0.9-3.1,0.7C9.4,7.6,8,8.5,7.2,9.3c-1,1.3,0.2,1.3,0.8,1.2c1-0.1,2-0.6,2.5-0.8C10,10.4,9.6,11,9.2,11.7
		c4-1.9,9.3-3.3,14.5-3.7C23.9,6.4,23.4,5.2,22,4.4z"/>
	<path class="st0" d="M4.6,13.1c0,0,0,0.1-0.1,0.1c0.3-0.5,0.4-0.8,0.6-1.1C5,12.4,4.8,12.7,4.6,13.1z"/>
	<path class="st0" d="M38.2,11.2c-0.1-0.1-0.1-0.2-0.2-0.3c0,0,0,0,0,0c0.3,0.5,0.6,0.9,0.8,1.2C38.6,11.8,38.4,11.5,38.2,11.2z"/>
	<path class="st0" d="M3.7,15.1c-0.1,0.3-0.2,0.6-0.3,0.9c0,0.1-0.1,0.2-0.1,0.3c0.2-0.7,0.4-1.1,0.5-1.4C3.8,14.9,3.7,15,3.7,15.1z
		"/>
	<path class="st0" d="M36,8.6c0,0-0.1-0.1-0.1-0.1c0,0-0.1-0.1-0.1-0.1c0.5,0.5,0.8,0.8,1,1.1C36.5,9.1,36.3,8.8,36,8.6z"/>
	<path class="st0" d="M33.6,6.4c-0.1,0-0.1-0.1-0.2-0.2c-0.1,0-0.1-0.1-0.2-0.1c0.6,0.4,0.9,0.7,1.2,0.9C34.1,6.8,33.8,6.6,33.6,6.4
		z"/>
	<path class="st0" d="M40.3,29.3c0.3-0.8,0.5-1.5,0.7-2.1c0,0,0-0.1,0-0.1c0.1-0.4,0.2-0.8,0.2-1.1c0-0.1,0-0.2,0-0.3
		c0-0.2,0.1-0.5,0.1-0.7c0.1-0.9,0.2-1.6,0.2-2.3c0,0,0,0,0,0c-0.1,1.8-0.7,3.6-1.6,5.3c-0.9,1.7-2.1,3.3-3.4,4.8
		c-1.7,1.8-3.6,3.5-5.6,4.9c-1.1,0.8-2.3,1.5-3.3,2.1c0,0,0,0,0,0c-2.2,1.2-4.5,1.8-6.8,1.9c0,0,0,0.1,0,0.1c0.1,0.1,0.4,0,0.6,0.1
		c0.1,0,0.2,0,0.3,0c0,0,0,0-0.1,0c0,0,0,0,0.1,0c0.2,0,0.3,0,0.5,0c0.2,0,0.3,0,0.5,0c0,0,0.1,0,0.1,0c0,0,0,0,0,0
		c0.3,0,0.7,0,1-0.1c0,0,0,0,0,0c0.1,0,0.1,0,0.2,0c0.2,0,0.5-0.1,0.7-0.1c0,0,0.1,0,0.1,0c0,0,0,0,0,0c0,0,0,0,0,0
		c0.2,0,0.5-0.1,0.7-0.1c0,0,0.1,0,0.1,0c0,0,0,0,0.1,0c0.2,0,0.4-0.1,0.5-0.1c0.1,0,0.1,0,0.2,0c0,0,0,0,0,0c0.1,0,0.1,0,0.2-0.1
		c0.2-0.1,0.3-0.1,0.5-0.1c0.2-0.1,0.4-0.1,0.5-0.2c0,0,0.1,0,0.1,0c0.1,0,0.1,0,0.1,0c0.1,0,0.2-0.1,0.4-0.1c0,0,0.1,0,0.1,0
		c0,0,0,0,0,0c0.2-0.1,0.4-0.1,0.5-0.2c0,0,0,0,0,0c0.2-0.1,0.3-0.1,0.6-0.2c0,0,0.1,0,0.1,0c0.1-0.1,0.3-0.1,0.4-0.2
		c0,0,0.1,0,0.1,0l0.4-0.2c2.5-1.2,4.8-3.1,6.8-5.5c0.1-0.1,0.2-0.3,0.3-0.4c0,0,0-0.1,0.1-0.1l0.2-0.2c0.2-0.2,0.3-0.4,0.4-0.6
		c0.1-0.2,0.2-0.4,0.4-0.6c0-0.1,0.1-0.1,0.1-0.2c0.2-0.3,0.4-0.7,0.7-1.3C39.9,30.5,40.1,29.9,40.3,29.3z"/>
	<path class="st0" d="M40.3,29.5c0.3-0.8,0.5-1.5,0.7-2.1c0,0,0-0.1,0-0.1c0.1-0.4,0.2-0.8,0.2-1.1c0-0.1,0-0.2,0-0.3
		c0-0.2,0.1-0.5,0.1-0.7c0.1-0.9,0.2-1.6,0.2-2.3c0,0,0,0,0,0c-0.1,1.8-0.7,3.6-1.6,5.3c-0.9,1.7-2.1,3.3-3.4,4.8
		c-1.7,1.8-3.6,3.5-5.6,4.9c-1.1,0.8-2.3,1.5-3.3,2.1c0,0,0,0,0,0c-2.2,1.2-4.5,1.8-6.8,1.9c0.2,0.1,0.3,0.2,0.6,0.2
		c0.1,0,0.2,0,0.3,0c0,0,0,0-0.1,0c0,0,0,0,0.1,0c0.2,0,0.3,0,0.5,0c0.2,0,0.3,0,0.5,0c0,0,0.1,0,0.1,0c0,0,0,0,0,0
		c0.3,0,0.7,0,1-0.1c0,0,0,0,0,0c0.1,0,0.1,0,0.2,0c0.2,0,0.5-0.1,0.7-0.1c0,0,0.1,0,0.1,0c0,0,0,0,0,0c0,0,0,0,0,0
		c0.2,0,0.5-0.1,0.7-0.1c0,0,0.1,0,0.1,0c0,0,0,0,0.1,0c0.2,0,0.4-0.1,0.5-0.1c0.1,0,0.1,0,0.2,0c0,0,0,0,0,0c0.1,0,0.1,0,0.2-0.1
		c0.2-0.1,0.3-0.1,0.5-0.1c0.2-0.1,0.4-0.1,0.5-0.2c0,0,0.1,0,0.1,0c0.1,0,0.1,0,0.1,0c0.1,0,0.2-0.1,0.4-0.1c0,0,0.1,0,0.1,0
		c0,0,0,0,0,0c0.2-0.1,0.4-0.1,0.5-0.2c0,0,0,0,0,0c0.2-0.1,0.3-0.1,0.6-0.2c0,0,0.1,0,0.1,0c0.1-0.1,0.3-0.1,0.4-0.2
		c0,0,0.1,0,0.1,0l0.4-0.2c2.5-1.2,4.8-3.1,6.8-5.5c0.1-0.1,0.2-0.3,0.3-0.4c0,0,0-0.1,0.1-0.1l0.2-0.2c0.2-0.2,0.3-0.4,0.4-0.6
		c0.1-0.2,0.2-0.4,0.4-0.6c0-0.1,0.1-0.1,0.1-0.2c0.2-0.3,0.4-0.7,0.7-1.3C39.9,30.6,40.1,30,40.3,29.5z"/>
	<path class="st0" d="M34.9,29.4c1.4-1.6,2.7-3.3,3.6-5c1.1-2,1.8-4,1.9-6c0.1-1.5-0.1-3.1-0.7-4.6l0,0c-0.2-0.5-0.5-1-0.8-1.5
		c-0.1-0.1-0.1-0.2-0.2-0.3c-0.2-0.3-0.4-0.7-0.8-1.2c0,0,0,0,0,0c-0.2-0.3-0.4-0.5-0.5-0.7c-0.2-0.2-0.3-0.4-0.5-0.6
		c-0.1-0.1-0.1-0.2-0.2-0.3c-0.2-0.3-0.6-0.6-1-1.1c0,0,0,0,0,0c-0.3-0.2-0.5-0.4-0.6-0.6c-0.2-0.2-0.4-0.4-0.6-0.5c0,0,0,0-0.1-0.1
		c-0.3-0.2-0.7-0.5-1.2-0.9c0,0-0.1,0-0.1-0.1L33,5.9c0,0,0.1,0.1,0.1,0.1c0.3,0.2,0.6,0.5,0.9,0.7c1,1,1.7,2,2,3.2
		c0.5,1.5,0.4,3.2,0,5c-0.6,2.2-1.8,4.5-3.4,6.7c-1.6,2.2-3.6,4.3-5.8,6.3c-5.5,4.9-12.2,8.7-16.7,9.1c-0.9,0-1.1-0.1-1.5-0.3
		c0.1,0.1,0.2,0.1,0.2,0.2c0,0,0,0,0,0c0.2,0.2,0.4,0.4,0.7,0.6c0.3,0.3,0.7,0.5,1,0.8c0,0,0.1,0,0.1,0.1c0.2,0.1,0.3,0.2,0.5,0.3
		c0.2,0.1,0.4,0.2,0.6,0.4c0.2,0.1,0.4,0.3,0.7,0.4c0.3,0.2,0.6,0.3,1.1,0.6c0,0,0.1,0,0.1,0.1c0.1,0,0.2,0.1,0.2,0.1
		c0.2,0.1,0.4,0.2,0.7,0.3c0.2,0.1,0.4,0.1,0.5,0.2c0.1,0,0.2,0.1,0.3,0.1c0,0,0,0,0.1,0l0.1,0c0,0,0.1,0,0.1,0.1
		c2.4,0.3,8.3-2.3,13.7-6.4C31.3,32.9,33.3,31.2,34.9,29.4z"/>
	<path class="st0" d="M34.9,29.5c1.4-1.6,2.7-3.3,3.6-5c1.1-2,1.8-4,1.9-6c0.1-1.5-0.1-3.1-0.7-4.6l0,0c-0.2-0.5-0.5-1-0.8-1.5
		c-0.1-0.1-0.1-0.2-0.2-0.3c-0.2-0.3-0.4-0.7-0.8-1.2l0,0c-0.2-0.3-0.4-0.5-0.5-0.7C37.3,10,37.1,9.8,37,9.6
		c-0.1-0.1-0.1-0.2-0.2-0.3c-0.2-0.3-0.6-0.6-1-1.1c0,0,0,0,0,0c-0.3-0.2-0.5-0.4-0.6-0.6c-0.2-0.2-0.4-0.4-0.6-0.5c0,0,0,0-0.1-0.1
		c-0.3-0.2-0.7-0.5-1.2-0.9c0,0-0.1,0-0.1-0.1L33,6c0,0,0.1,0.1,0.1,0.1c0.3,0.2,0.6,0.5,0.9,0.7c1,1,1.7,2,2,3.2
		c0.5,1.5,0.4,3.2,0,5c-0.6,2.2-1.8,4.5-3.4,6.7C31,23.9,29,26,26.8,28c-5.5,4.9-12.2,8.7-16.7,9.1c-0.9,0-1.1-0.1-1.5-0.3
		c0.1,0.1,0.2,0.1,0.2,0.2c0,0,0,0,0,0c0.2,0.2,0.4,0.4,0.7,0.6c0.3,0.3,0.7,0.5,1,0.8c0,0,0.1,0,0.1,0.1c0.2,0.1,0.3,0.2,0.5,0.3
		c0.2,0.1,0.4,0.2,0.6,0.4c0.2,0.1,0.4,0.3,0.7,0.4c0.3,0.2,0.6,0.3,1.1,0.6c0,0,0.1,0,0.1,0.1c0.1,0,0.2,0.1,0.2,0.1
		c0.2,0.1,0.4,0.2,0.7,0.3c0.2,0.1,0.4,0.1,0.5,0.2c0.1,0,0.2,0.1,0.3,0.1c0,0,0,0,0.1,0l0.1,0c0,0,0.1,0,0.1,0.1
		c2.4,0.3,8.3-2.3,13.7-6.4C31.3,33.1,33.3,31.4,34.9,29.5z"/>
	<path class="st0" d="M10.7,9.7c-0.5,0.2-1.6,0.7-2.5,0.8c-0.6,0.1-1.9,0.1-0.8-1.2C7.1,9.5,6.9,9.7,6.7,10
		c-0.1,0.2-0.3,0.3-0.4,0.5c-0.1,0.1-0.2,0.3-0.3,0.4C6,11,6,11,5.9,11c-0.3,0.4-0.5,0.7-0.6,1c-0.2,0.3-0.3,0.6-0.6,1.1
		c0,0.1-0.1,0.2-0.1,0.2c-0.1,0.2-0.2,0.4-0.3,0.6c-0.1,0.2-0.2,0.4-0.3,0.6c0,0.1,0,0.1-0.1,0.2c-0.1,0.3-0.3,0.7-0.5,1.4
		c-0.2,1.1,1,1.3,3.5,0.6c3.1-0.8,5.4-1.9,5.6-4.7C12.6,11.3,12.6,8.9,10.7,9.7z"/>
	<path class="st0" d="M10.5,9.7C10,10,9,10.4,8,10.6c-0.6,0.1-1.9,0.1-0.8-1.2C7,9.5,6.8,9.8,6.6,10c-0.1,0.2-0.3,0.3-0.4,0.5
		C6.1,10.7,6,10.8,5.9,11c0,0.1-0.1,0.1-0.1,0.1c-0.3,0.4-0.5,0.7-0.6,1c-0.2,0.3-0.3,0.6-0.6,1.1c0,0.1-0.1,0.2-0.1,0.2
		c-0.1,0.2-0.2,0.4-0.3,0.6c-0.1,0.2-0.2,0.4-0.3,0.6c0,0.1,0,0.1-0.1,0.2c-0.1,0.3-0.3,0.7-0.5,1.4c-0.2,1.1,1,1.3,3.5,0.6
		c3.1-0.8,5.4-1.9,5.6-4.7C12.5,11.3,12.4,9,10.5,9.7z"/>
	<path class="st0" d="M29.7,13.6c1-2,1.4-3.9,1.2-5.5c-0.2-1.6-1.1-3-2.5-3.9C27,3.3,25.2,2.7,23,2.5c0,0,0,0-0.1,0c0,0,0,0,0,0
		c0,0,0,0,0,0c0,0,0,0,0,0c-0.3,0-0.6,0-0.9,0c-0.3,0-0.7,0-1,0c0,0,0,0,0,0c0,0,0,0-0.1,0c0,0-0.1,0-0.1,0c-0.1,0-0.3,0-0.4,0
		c-0.3,0-0.5,0-1,0.1c-0.1,0-0.2,0-0.3,0c0,0-0.1,0-0.1,0c0,0,0,0,0,0c0,0,0,0,0,0c-0.3,0-0.5,0.1-0.8,0.1c0,0,0,0,0,0
		c-0.2,0-0.5,0.1-0.7,0.1c0,0,0,0,0,0c0,0,0,0,0,0c0,0,0,0,0,0c-0.1,0-0.2,0.1-0.3,0.1c-0.1,0-0.2,0-0.3,0.1c0,0-0.1,0-0.1,0
		c0,0-0.1,0-0.1,0c-0.2,0-0.4,0.1-0.6,0.2c0,0,0,0,0,0c-0.2,0-0.3,0.1-0.5,0.1c0,0-0.1,0-0.2,0.1c0,0,0,0-0.1,0
		c-0.2,0.1-0.4,0.1-0.6,0.2c0,0,0,0,0,0c0,0,0,0,0,0c-0.2,0.1-0.3,0.1-0.5,0.2c0,0,0,0,0,0c-0.2,0.1-0.4,0.2-0.5,0.2c0,0,0,0,0,0
		l0,0c0,0-0.1,0-0.1,0c-0.1,0-0.1,0.1-0.2,0.1c0,0,0,0-0.1,0c-1.4,0.7-2.1,1.4-2.3,1.8c-0.1,0.2,0,0.3,0.1,0.4
		c0.4,0.2,1.5,0.1,3.1-0.7c0-0.2,0-0.4,0.1-0.5C15,4.2,18.6,3,21.2,3.9C21.5,4,21.7,4.1,22,4.2c1.4,0.8,1.9,2.1,1.7,3.6
		c-0.3,1.9-1.7,4.3-3.7,6.6c-3.6,4-9.3,7.9-14.3,9.1c-3,0.6-3.2-0.2-3.3-0.6c0,0.4,0,0.8,0.1,1.2c0,0.1,0,0.1,0,0.2c0,0,0,0,0,0
		c0,0.1,0,0.2,0,0.3c0.1,0.8,0.3,1.8,0.5,2.6c0.1,0.2,0.1,0.5,0.2,0.7c0,0,0,0,0,0.1c0.1,0.3,0.2,0.6,0.3,0.9
		c0.2,0.6,0.5,1.2,0.7,1.7l0.1,0.3c0.5,0.6,1.5,0.5,2.5,0.4c0-0.1-0.1-0.2-0.1-0.3c0,0.1,0.1,0.2,0.1,0.3c5.2-0.9,11.4-5.5,15.3-8.8
		c0.4-0.4,0.8-0.7,1.2-1.1C26.4,18.8,28.5,16.1,29.7,13.6z"/>
	<path class="st0" d="M29.7,13.7c1-2,1.4-3.9,1.2-5.5c-0.2-1.6-1.1-3-2.5-3.9C27,3.4,25.2,2.8,23,2.6c0,0,0,0-0.1,0c0,0,0,0,0,0
		c0,0,0,0,0,0c0,0,0,0,0,0c-0.3,0-0.6,0-0.9,0c-0.3,0-0.7,0-1,0c0,0,0,0,0,0c0,0,0,0-0.1,0c0,0-0.1,0-0.1,0c-0.1,0-0.3,0-0.4,0
		c-0.3,0-0.5,0-1,0.1c-0.1,0-0.2,0-0.3,0c0,0-0.1,0-0.1,0c0,0,0,0,0,0c0,0,0,0,0,0c-0.3,0-0.5,0.1-0.8,0.1c0,0,0,0,0,0
		c-0.2,0-0.5,0.1-0.7,0.1c0,0,0,0,0,0c0,0,0,0,0,0c0,0,0,0,0,0c-0.1,0-0.2,0.1-0.3,0.1c-0.1,0-0.2,0-0.3,0.1c0,0-0.1,0-0.1,0
		c0,0-0.1,0-0.1,0c-0.2,0-0.4,0.1-0.6,0.2c0,0,0,0,0,0c-0.2,0-0.3,0.1-0.5,0.1c0,0-0.1,0-0.2,0.1c0,0,0,0-0.1,0
		c-0.2,0.1-0.4,0.1-0.6,0.2c0,0,0,0,0,0c0,0,0,0,0,0c-0.2,0.1-0.3,0.1-0.5,0.2c0,0,0,0,0,0c-0.2,0.1-0.4,0.2-0.5,0.2c0,0,0,0,0,0
		l0,0c0,0-0.1,0-0.1,0c-0.1,0-0.1,0.1-0.2,0.1c0,0,0,0-0.1,0c-1.4,0.7-2.1,1.4-2.3,1.8c-0.1,0.2,0,0.3,0.1,0.4
		C11.6,7,12.7,6.8,14.2,6c0-0.2,0-0.4,0.1-0.5C15,4.4,18.6,3.2,21.2,4c0.3,0.1,0.5,0.2,0.8,0.3c1.4,0.8,1.9,2.1,1.7,3.6
		c-0.3,1.9-1.7,4.3-3.7,6.6c-3.6,4-9.3,7.9-14.3,9.1c-3,0.6-3.2-0.2-3.3-0.6c0,0.4,0,0.8,0.1,1.2c0,0.1,0,0.1,0,0.2c0,0,0,0,0,0
		c0,0.1,0,0.2,0,0.3c0.1,0.8,0.3,1.8,0.5,2.6c0.1,0.2,0.1,0.5,0.2,0.7c0,0,0,0,0,0.1c0.1,0.3,0.2,0.6,0.3,0.9
		c0.2,0.6,0.5,1.2,0.7,1.7l0.1,0.3c0.5,0.6,1.5,0.5,2.5,0.4c0-0.1-0.1-0.2-0.1-0.3c0,0.1,0.1,0.2,0.1,0.3c5.2-0.9,11.4-5.5,15.3-8.8
		c0.4-0.4,0.8-0.7,1.2-1.1C26.4,18.9,28.5,16.2,29.7,13.7z"/>
</g>
</svg>
