<?xml version="1.0" encoding="utf-8"?>
<!-- Generator: Adobe Illustrator 19.1.0, SVG Export Plug-In . SVG Version: 6.00 Build 0)  -->
<svg version="1.1" id="Layer_1" xmlns="http://www.w3.org/2000/svg" xmlns:xlink="http://www.w3.org/1999/xlink" x="0px" y="0px"
	 viewBox="0 0 43.7 45.3" style="enable-background:new 0 0 43.7 45.3;" xml:space="preserve">
<style type="text/css">
	.st0{fill:#3F6DB5;}
</style>
<path class="st0" d="M38.2,5.2L22.3,0.1C22,0,21.7,0,21.4,0.1L5.5,5.2C4.9,5.4,4.4,6,4.4,6.7V27c0,4.2,2.6,8.5,8.4,12.7
	c4.1,3,8.2,4.8,8.4,4.9c0.2,0.1,0.4,0.1,0.6,0.1c0.2,0,0.4,0,0.6-0.1c0.2-0.1,4.2-1.9,8.4-4.9c5.8-4.2,8.4-8.5,8.4-12.7V6.7
	C39.2,6,38.8,5.4,38.2,5.2z M20.7,19.8H23c2.6,0,4.8,2.1,4.8,4.7c0,2.4-2,4.5-4.4,4.7v2.4c0,0.8-0.7,1.5-1.5,1.5
	c-0.8,0-1.5-0.7-1.5-1.5v-2.3h-2.9c-0.8,0-1.5-0.7-1.5-1.5c0-0.8,0.7-1.5,1.5-1.5H23c0.9,0,1.7-0.8,1.7-1.6c0-0.8-0.8-1.6-1.7-1.6
	h-2.3c-2.6,0-4.8-2.1-4.8-4.7c0-2.4,2-4.5,4.4-4.7V11c0-0.8,0.7-1.5,1.5-1.5c0.8,0,1.5,0.7,1.5,1.5v2.5h2.9c0.8,0,1.5,0.7,1.5,1.5
	c0,0.8-0.7,1.5-1.5,1.5h-5.5c-0.9,0-1.7,0.8-1.7,1.6C19,19,19.8,19.8,20.7,19.8z"/>
</svg>
