<?xml version="1.0" encoding="utf-8"?>
<!-- Generator: Adobe Illustrator 19.1.0, SVG Export Plug-In . SVG Version: 6.00 Build 0)  -->
<svg version="1.1" id="Layer_1" xmlns="http://www.w3.org/2000/svg" xmlns:xlink="http://www.w3.org/1999/xlink" x="0px" y="0px"
	 viewBox="0 0 43.7 45.3" style="enable-background:new 0 0 43.7 45.3;" xml:space="preserve">
<style type="text/css">
	.st0{fill:none;}
	.st1{fill:#75CFF2;}
	.st2{fill:#3E698A;}
</style>
<g>
	<g>
		<path class="st0" d="M8.3,29c0,0.1,0.1,0.1,0.1,0.1h26.9c0.1,0,0.1-0.1,0.1-0.1V10.4H8.3V29z M31.8,12.5c0.2-0.2,0.5-0.3,0.8-0.3
			c0.3,0,0.6,0.1,0.8,0.3c0.2,0.2,0.3,0.5,0.3,0.8s-0.1,0.6-0.3,0.8c-0.2,0.2-0.5,0.3-0.8,0.3c-0.3,0-0.6-0.1-0.8-0.3
			c-0.2-0.2-0.3-0.5-0.3-0.8C31.4,13,31.5,12.7,31.8,12.5z M10.4,25.7l7.7-6.8c0.4-0.4,1.1-0.4,1.5,0l2.9,2.6l6.8-6.6
			c0.4-0.4,1.2-0.4,1.6,0c0.4,0.4,0.4,1.2,0,1.6l-7.5,7.3c-0.4,0.4-1.1,0.4-1.5,0l-3-2.7l-6.9,6.1c-0.2,0.2-0.5,0.3-0.7,0.3
			c-0.3,0-0.6-0.1-0.8-0.4C9.9,26.8,9.9,26.1,10.4,25.7z"/>
		<path class="st1" d="M39.7,5.7H4c-0.1,0-0.1,0.1-0.1,0.1V8c0,0.1,0.1,0.1,0.1,0.1h35.7c0.1,0,0.1-0.1,0.1-0.1V5.8
			C39.8,5.7,39.7,5.7,39.7,5.7z"/>
		<path class="st2" d="M39.7,3.4H4c-1.3,0-2.4,1.1-2.4,2.4V8c0,1.3,1.1,2.4,2.4,2.4h2V29c0,1.3,1.1,2.4,2.4,2.4h12.3v5.3l-11,2.9
			c-0.6,0.2-1,0.8-0.8,1.4c0.1,0.5,0.6,0.8,1.1,0.8c0.1,0,0.2,0,0.3,0l11.5-3.1c0,0,0,0,0,0c0,0,0,0,0,0l11.5,3.1c0.1,0,0.2,0,0.3,0
			c0.5,0,1-0.3,1.1-0.8c0.2-0.6-0.2-1.2-0.8-1.4l-11-2.9v-5.3h12.3c1.3,0,2.4-1.1,2.4-2.4V10.4h2c1.3,0,2.4-1.1,2.4-2.4V5.8
			C42.1,4.5,41,3.4,39.7,3.4z M39.8,8c0,0.1-0.1,0.1-0.1,0.1H4C3.9,8.1,3.9,8.1,3.9,8V5.8c0-0.1,0.1-0.1,0.1-0.1h35.7
			c0.1,0,0.1,0.1,0.1,0.1V8z M35.4,29c0,0.1-0.1,0.1-0.1,0.1H8.4c-0.1,0-0.1-0.1-0.1-0.1V10.4h27.2L35.4,29L35.4,29z"/>
		<path class="st2" d="M11.1,27.6c0.3,0,0.5-0.1,0.7-0.3l6.9-6.1l3,2.7c0.4,0.4,1.1,0.4,1.5,0l7.5-7.3c0.4-0.4,0.5-1.1,0-1.6
			c-0.4-0.4-1.1-0.5-1.6,0l-6.8,6.6l-2.9-2.6c-0.4-0.4-1.1-0.4-1.5,0l-7.7,6.8c-0.5,0.4-0.5,1.1-0.1,1.6
			C10.5,27.5,10.8,27.6,11.1,27.6z"/>
		<path class="st2" d="M32.5,14.4c0.3,0,0.6-0.1,0.8-0.3c0.2-0.2,0.3-0.5,0.3-0.8s-0.1-0.6-0.3-0.8c-0.2-0.2-0.5-0.3-0.8-0.3
			c-0.3,0-0.6,0.1-0.8,0.3c-0.2,0.2-0.3,0.5-0.3,0.8c0,0.3,0.1,0.6,0.3,0.8C32,14.3,32.2,14.4,32.5,14.4z"/>
	</g>
</g>
</svg>
