<?xml version="1.0" encoding="utf-8"?>
<!-- Generator: Adobe Illustrator 21.1.0, SVG Export Plug-In . SVG Version: 6.00 Build 0)  -->
<svg version="1.1" id="Capa_1" xmlns="http://www.w3.org/2000/svg" xmlns:xlink="http://www.w3.org/1999/xlink" x="0px" y="0px"
	 viewBox="0 0 100 100" style="enable-background:new 0 0 100 100;" xml:space="preserve">
<style type="text/css">
	.st0{fill:#1F73BF;}
</style>
<path class="st0" d="M67,15c0,0,1.8,6.1-3.8,11.7c-2.7,2.6-6.5,4.5-6.5,4.5s6.7-4.1,6.8-10.5c0,0,0.4-4.4-1.1-7.4
	c0,0,1.7,6.7-4.3,12.2c-5.1,4.7-9.9,6.2-11.8,11.2c0.8-2.5,2.4-5.9,5.6-8.8c0.8-0.4,1.4-1,1.5-1.7c0.4-2.5-0.3-5-0.6-5.9
	c-0.3-0.9-5.1-3.1-7.7-4.3c-2.6-1.2-1.6,0.2-1.6,0.2l0.9,1.2c1.8,2.8,1.5,5.7,0.9,7.7c-1.5,2.2-4.1,5-4.7,9.1
	c-0.8,5.6,3.4,11.6,4.1,12.1c0.8,0.5,3.9,0,3.9,0s-0.7-6,2-7.9c0,0-1.8,5.3,0,7.9h1c0,0-0.1-4.2,5.2-6.3
	c5.3-2.1,10.2-11.6,10.9-14.6C68.6,22.4,68.6,17.6,67,15z"/>
<path class="st0" d="M35.5,24.1C27.6,12.3,38.7,5,38.7,5S23,11.8,35.5,24.1z"/>
<path class="st0" d="M29.9,11.1c0,0-5.4,12.1,10.1,18c0,0-3.4,5.5-1.1,10.6c0,0-10.3-3.4-13.1-10.7c0,0-2.1-3.8-1.3-7.8
	c0,0,1,5.3,5.7,8.1C30.2,29.3,21.9,18.5,29.9,11.1z"/>
<path class="st0" d="M40.1,41.9c0,0,1.2,3.9,2.3,4.5c0,0-13.9-5-17.4-15.9C25,30.5,30.6,39.6,40.1,41.9z"/>
<path class="st0" d="M55.6,42.1c0,0-0.8,4-1.8,4.7c0,0,13.3-6.5,15.6-17.7C69.4,29.1,64.7,38.8,55.6,42.1z"/>
<path class="st0" d="M67.4,12.5c0,0,3.3,5.2,1.7,9.7C69.2,22.2,73.2,17.3,67.4,12.5z"/>
<path class="st0" d="M61.1,6.7c0,0,5.4,7.6,3.3,14.5C64.4,21.3,70.2,13.7,61.1,6.7z"/>
<g>
	<path class="st0" d="M44.9,50.1c0,0,9.6,14.5,21.1,25.9c6.7,6.5,9.6,19,9.6,19s-11.3-14.5-20-22.4S44.9,53.2,44.9,50.1z"/>
	<path class="st0" d="M48.6,46.8c0,0,4.6,9.1,11.6,13.3s14.1,16.3,14.1,16.3s-15.8-11.9-17.9-14C54.3,60.3,48.5,55.4,48.6,46.8z"/>
	<path class="st0" d="M50.5,46.3c0,0,4.9,4.9,11,6.3c6.1,1.4,12.9,7.7,12.9,7.7s-7.4-4.4-11.9-5S52.4,51.4,50.5,46.3z"/>
</g>
</svg>
