<svg xmlns="http://www.w3.org/2000/svg" xmlns:xlink="http://www.w3.org/1999/xlink" viewBox="0 0 837.2 286"><defs><style>.cls-1{fill:none;}.cls-2,.cls-4{fill:#1b3351;}.cls-3{fill:#1a1a1a;}.cls-3,.cls-4,.cls-7{fill-rule:evenodd;}.cls-5{clip-path:url(#clip-path);}.cls-6{fill:#667180;}.cls-7{fill:#fff;}</style><clipPath id="clip-path"><circle class="cls-1" cx="143" cy="143" r="121.5"/></clipPath></defs><title>Recurso 3</title><g id="Capa_2" data-name="Capa 2"><g id="Capa_1-2" data-name="Capa 1"><path class="cls-2" d="M143,286C64.15,286,0,221.85,0,143S64.15,0,143,0,286,64.15,286,143,221.85,286,143,286ZM143,2.39C65.47,2.39,2.39,65.47,2.39,143S65.47,283.61,143,283.61,283.61,220.53,283.61,143,220.53,2.39,143,2.39Z"/><path class="cls-3" d="M193.19,257.89l.65,1.64-5.07,2-.65-1.64,5.07-2Zm-6.39,2.59.57,1.67-5.17,1.76-.57-1.67,5.17-1.76Zm-6.52,2.23.48,1.7-5.25,1.5-.49-1.7,5.25-1.5Zm-6.64,1.87.4,1.72-5.32,1.23-.4-1.72,5.32-1.23Zm-6.73,1.5.31,1.74-5.37,1-.31-1.74,5.37-1Zm-6.81,1.13.22,1.75-5.41.69-.22-1.75,5.41-.69Zm-6.86.75.13,1.76-5.44.42-.13-1.76,5.44-.42Zm-6.89.37,0,1.77-5.46.14,0-1.77,5.46-.14Zm-6.9,0,0,1.77-5.46-.14,0-1.77,5.46.14Zm-7.12-.29-.22,1.75-5.41-.69.22-1.75,5.41.69Zm-6.86-.8-.31,1.74-5.37-1,.31-1.74,5.37,1Zm-6.8-1.18-.4,1.72L113,266.55l.4-1.72,5.32,1.23ZM112,264.51l-.49,1.7-5.25-1.5.49-1.7,5.25,1.5Zm-6.62-1.92-.57,1.67L99.6,262.5l.57-1.67,5.17,1.76Zm-6.5-2.29-.65,1.64-5.07-2,.65-1.64,5.07,2Zm-6.37-2.64-.73,1.61-5-2.26.73-1.61,5,2.26Zm-6.21-3-.81,1.57-4.85-2.5.81-1.57,4.85,2.5ZM80,251.33l-1,1.48-4.59-3,1-1.48,4.59,3Zm-5.82-3.69-1,1.44-4.44-3.18,1-1.44,4.44,3.18Zm-5.61-4L67.47,245l-4.28-3.39,1.1-1.39,4.28,3.39Zm-5.38-4.3L62,240.67l-4.11-3.59,1.16-1.33,4.11,3.59ZM58,234.76,54.11,231l-1.22,1.27L56.82,236,58,234.76Zm-4.89-4.85-1.28,1.21-3.75-4,1.28-1.21,3.75,4Zm-4.84-5.19-1.39,1.09-3.36-4.3L45,220.42l3.36,4.3ZM44,219.34l-1.44,1-3.15-4.46,1.44-1L44,219.34Zm-4-5.61-1.49.95-2.93-4.6,1.49-.95,2.93,4.6Zm-3.7-5.81-1.53.88-2.71-4.74,1.53-.88,2.71,4.74Zm-3.38-6-1.57.8-2.48-4.86,1.57-.8,2.48,4.86Zm-3-6.18-1.61.72-2.24-5,1.61-.72,2.24,5Zm-2.71-6.34-1.64.64-2-5.08,1.64-.64,2,5.08Zm-2.55-6.64-1.7.48L21.45,178l1.7-.48,1.48,5.25Zm-2-6.61-1.72.39-1.22-5.32,1.72-.4,1.22,5.32Zm-1.6-6.71-1.74.31-1-5.37,1.74-.31,1,5.37Zm-1.23-6.79-1.75.22-.68-5.41,1.75-.22.68,5.41ZM19,155.81l-1.76.13-.41-5.44,1.76-.13.41,5.44Zm-.49-6.88-1.77,0-.14-5.46,1.77,0,.14,5.46Zm-.12-6.9-1.76,0,.14-5.46,1.76,0L18.36,142Zm.24-6.89L16.84,135l.41-5.44,1.76.13-.41,5.44Zm.62-6.87L17.46,128l.68-5.41,1.75.22-.68,5.41Zm1-6.82-1.74-.31,1-5.37,1.74.31-1,5.37Zm1.36-6.76-1.72-.39L21.06,109l1.72.39-1.22,5.32Zm1.68-6.91-1.67-.56L23.3,102l1.67.56-1.74,5.17Zm2.13-6.56-1.64-.64,2-5.08,1.64.64-2,5.08Zm2.48-6.43-1.61-.72,2.24-5,1.61.72-2.24,5Zm2.83-6.28-1.57-.8,2.48-4.86,1.57.8-2.47,4.86Zm3.16-6.12-1.53-.88L35,76.77l1.53.88-2.71,4.74Zm3.49-5.94-1.49-.95,2.93-4.6,1.49.95-2.93,4.6Zm3.81-5.74-1.44-1,3.15-4.46,1.44,1-3.15,4.46ZM45.29,65,44,63.8l3.56-4.14,1.34,1.15L45.29,65Zm4.44-5.27,3.75-4-1.28-1.21-3.75,4,1.28,1.21Zm4.72-5L53.23,53.4l3.94-3.78,1.22,1.27-3.94,3.78Zm5-4.76,4.11-3.59L62.39,45l-4.11,3.59,1.16,1.33Zm5.23-4.48-1.1-1.38,4.28-3.39,1.1,1.39-4.28,3.39Zm5.46-4.19-1-1.44,4.44-3.18,1,1.44-4.44,3.18Zm5.68-3.89-1-1.48,4.59-3,1,1.48-4.59,3Zm6-3.76L81,32l4.85-2.5.81,1.57-4.85,2.5Zm6.1-3.21-.73-1.61,5-2.26.73,1.61-5,2.26Zm6.27-2.87-.65-1.64,5.07-2,.65,1.64-5.07,2ZM100.63,25l-.57-1.67,5.17-1.76.57,1.67L100.63,25Zm6.55-2.16-.49-1.7,5.25-1.5.48,1.7-5.25,1.5Zm6.66-1.8-.4-1.72,5.32-1.23.4,1.72L113.84,21Zm6.75-1.42-.31-1.74,5.37-1,.31,1.74-5.37,1Zm6.82-1-.22-1.75,5.41-.69.22,1.75-5.41.69Zm7.08-.79,0-1.76,5.46-.14,0,1.76-5.46.14Zm6.9-.26,0-1.76,5.46.14,0,1.77-5.46-.14Zm6.9.12.13-1.76,5.44.42-.13,1.76-5.44-.42Zm6.88.5.22-1.75,5.41.69-.22,1.75-5.41-.69ZM162,19l.31-1.74,5.37,1L167.38,20,162,19Zm6.78,1.25.4-1.72,5.32,1.23-.4,1.72-5.32-1.23Zm6.7,1.63.49-1.7,5.25,1.5-.48,1.7-5.25-1.5Zm6.6,2,.57-1.67L187.83,24l-.57,1.67-5.17-1.76Zm6.48,2.36.65-1.64,5.07,2-.65,1.64-5.07-2ZM195.14,29l.81-1.57,4.85,2.5L200,31.47,195.14,29Zm6.16,3.1.88-1.53,4.72,2.73L206,34.8l-4.72-2.73Zm6,3.43,1-1.48,4.59,3-1,1.48-4.59-3ZM213,39.25l1-1.44L218.51,41l-1,1.44L213,39.25Zm5.56,4.06,1.09-1.38L224,45.31l-1.09,1.39-4.28-3.39Zm5.33,4.35,4.11,3.59,1.16-1.33-4.11-3.59-1.16,1.33ZM229,52.3,230.26,51l3.94,3.78L233,56.08,229,52.3Zm5,5,1.34-1.15L239,60.28l-1.34,1.15-3.56-4.14Zm4.53,5.19,3.36,4.3,1.39-1.09L240,61.4l-1.39,1.09Zm4.24,5.43,1.44-1,3.15,4.46-1.44,1-3.15-4.46Zm3.94,5.65,1.49-.95,2.93,4.6-1.49.95-2.93-4.6Zm3.63,5.85,1.53-.88,2.71,4.74-1.53.88-2.71-4.74Zm3.31,6,1.57-.8,2.47,4.86-1.57.8-2.48-4.86Zm3.18,6.35,1.64-.64,2,5.08-1.64.64-2-5.08Zm2.6,6.39,1.67-.56,1.74,5.17-1.67.56L259.5,98.2Zm2.25,6.52,1.7-.48,1.48,5.25-1.7.48-1.48-5.25Zm1.89,6.63,1.72-.39,1.22,5.32-1.72.39-1.22-5.32Zm1.52,6.73,1.74-.31,1,5.37-1.74.31-1-5.37Zm1.16,6.8,1.75-.22.68,5.41-1.75.22-.68-5.41Zm.79,6.85,1.76-.13.41,5.44-1.76.13-.41-5.44Zm.42,6.88,1.77,0,.14,5.46-1.77,0-.14-5.46Zm0,6.9,1.76,0-.14,5.46-1.76,0,.14-5.46Zm-.32,6.89,1.76.13-.41,5.44-1.76-.13.41-5.44Zm-.69,6.86,1.75.22-.68,5.41-1.75-.22.68-5.41Zm-1,7,1.72.39L266,172l-1.72-.39,1.22-5.32ZM264.07,173l1.7.48-1.48,5.25-1.7-.48,1.48-5.25Zm-1.84,6.64,1.67.56-1.74,5.17-1.67-.56,1.74-5.17Zm-2.2,6.53,1.64.64-2,5.08-1.64-.64,2-5.08Zm-2.55,6.4,1.61.72-2.24,5-1.61-.72,2.24-5Zm-2.9,6.25,1.57.8-2.48,4.86-1.57-.8,2.47-4.86Zm-3.23,6.08,1.53.88-2.71,4.74-1.53-.88,2.71-4.74Zm-3.57,6.14,1.44,1-3.15,4.46-1.44-1,3.15-4.46Zm-3.91,5.67,1.39,1.09-3.36,4.3-1.39-1.09,3.36-4.3Zm-4.21,5.45,1.34,1.15-3.56,4.14-1.34-1.15,3.56-4.14Zm-4.5,5.22-3.75,4,1.28,1.21,3.75-4-1.28-1.21Zm-4.77,5,1.22,1.27-3.94,3.78-1.22-1.27,3.94-3.78Zm-5,4.7-4.11,3.59L222.4,242l4.11-3.59-1.16-1.33Zm-5.28,4.42,1.1,1.38-4.28,3.39-1.1-1.38,4.28-3.39Zm-5.62,4.34,1,1.48-4.59,3-1-1.48,4.59-3Zm-5.76,3.79.88,1.53-4.72,2.73-.88-1.53,4.72-2.73Zm-6,3.47.81,1.57-4.85,2.5-.81-1.57,4.85-2.5Zm-6.14,3.14-5,2.26.73,1.61,5-2.26Z"/><path class="cls-2" d="M140.83,270.35l0-2,5.67-.14,0,2Zm.17-1.77,0,1.55,5.24-.13,0-1.55Zm6.83,1.68-.15-2h.11l5.55-.43.15,2h-.11Zm.08-1.78L148,270l5.23-.4-.12-1.54Zm-8.4,1.73h-.11l-5.56-.14,0-2H134l5.56.14Zm-5.45-.35,5.24.13,0-1.55-5.24-.13Zm-1.86.06-5.63-.72.25-2,5.63.72Zm-5.39-.91,5.2.67.2-1.54-5.2-.67Zm28,.77-.25-2,5.63-.72.25,2Zm0-1.78.2,1.54,5.2-.67-.2-1.54Zm-29.55,1.1-.11,0-5.48-1,.35-1.95.11,0,5.48,1Zm-5.33-1.18,5.16.93.27-1.53-5.16-.93Zm41.84,1-.35-2,.11,0,5.48-1,.35,2-.11,0Zm-.1-1.78.27,1.53,5.16-.93-.27-1.53Zm-43.29.77-5.53-1.28.45-1.93,5.53,1.28Zm-5.27-1.45,5.1,1.19.35-1.51-5.1-1.19Zm55.54,1.21-.45-1.93,5.53-1.28.45,1.93Zm-.19-1.77.35,1.51,5.1-1.19-.35-1.51Zm-56.9.44-.1,0-5.35-1.53.54-1.91.1,0,5.35,1.53Zm-5.19-1.71,5,1.44.43-1.49-5-1.44ZM175.43,266l-.54-1.91.1,0,5.35-1.53.54,1.9-.1,0Zm-.28-1.76.42,1.49,5-1.44-.43-1.49Zm-70.32.1-.1,0-5.27-1.79.64-1.87.1,0,5.27,1.79Zm-5.1-2,5,1.69.5-1.47-5-1.69Zm82.39,1.62-.64-1.87.1,0,5.27-1.79.64,1.88-.1,0Zm-.37-1.74.5,1.47,5-1.69-.5-1.47Zm-83.52-.23L93,260l.73-1.84L99,260.24Zm-5-2.21,4.87,1.93.57-1.44-4.87-1.93Zm95.46,1.82-.73-1.84,3.62-1.45,5.07-2.3.82,1.8-.1,0-3.44,1.57,0,.08Zm-.45-1.72.57,1.44,3.41-1.35-.64-1.41Zm3.54-1.4.64,1.4,1.24-.57-.54-1.36Zm1.5-.7.57,1.44,3.33-1.52-.64-1.41Zm-101.5,1.54-.1,0-5.07-2.31,0-.1.78-1.7.1,0,5.06,2.3ZM86.91,257l4.77,2.17.64-1.41-4.77-2.17Zm111.74.37-.91-1.76.1,0,4.95-2.55.91,1.76-.1,0Zm-.62-1.67.71,1.38,4.66-2.4-.71-1.38Zm-112.54.74-5-2.6.91-1.76,5,2.6Zm-4.75-2.69,4.66,2.4.71-1.38-4.66-2.4Zm124.08.35-1-1.71.09-.05,4.82-2.79,1,1.71-.09.05Zm-.7-1.64.78,1.34,4.54-2.62-.78-1.34ZM79.07,253l-4.77-3.08,1.08-1.67,4.77,3.08Zm-4.47-3.14,4.4,2.84.84-1.3-4.4-2.84Zm136.2.62-1.07-1.67,4.77-3.08,1.07,1.67Zm-.78-1.6.84,1.3,4.4-2.84-.84-1.3Zm-136.85.38-.09-.06-4.53-3.24,1.15-1.61.09.06,4.53,3.24Zm-4.31-3.35,4.26,3.05.9-1.26-4.26-3.05Zm148,.56-1.23-1.55.08-.07,4.37-3.45,1.23,1.55-.08.07Zm-.93-1.52,1,1.22,4.11-3.25-1-1.22Zm-148.46.26-.08-.07L63,241.65l1.23-1.55.08.07,4.36,3.45Zm-4.15-3.55,4.11,3.25,1-1.22L64.3,240.4Zm159.05.54-1.3-1.49,4.28-3.73,1.3,1.49Zm-1-1.47,1,1.17,4-3.44-1-1.17ZM62,240.82l-4.28-3.73,1.3-1.49,4.28,3.73Zm-4-3.75,4,3.45,1-1.17-4-3.44Zm169.61.52-1.37-1.43.08-.08,4-3.85.08.08,1.3,1.35-.08.08Zm-1.07-1.42,1.07,1.12,3.78-3.63-1.07-1.12Zm-169.78,0-.08-.07-4-3.85,1.37-1.43.08.07,4,3.85ZM53,232.25l3.78,3.63,1.07-1.12-3.78-3.63Zm179.66.5-1.44-1.36,3.9-4.12,1.44,1.36Zm-1.13-1.37,1.13,1.07,3.6-3.81-1.13-1.07Zm-179.69-.11L48,227.15l1.44-1.36,3.9,4.12Zm-3.6-4.11,3.6,3.81L53,229.9l-3.6-3.81Zm189.17.48-1.5-1.29,3.7-4.3,1.5,1.29Zm-1.2-1.32,1.17,1,3.42-4-1.17-1ZM46.9,226l-3.49-4.47L45,220.27l3.49,4.47Zm-3.19-4.43,3.23,4.13,1.22-1-3.23-4.13Zm198.21.77-1.56-1.22,3.49-4.47,1.56,1.22ZM240.66,221l1.22,1,3.23-4.13-1.22-1ZM42.54,220.5l-.06-.09-3.21-4.55,1.62-1.14.06.09,3.21,4.55Zm-3-4.58,3,4.28,1.27-.89-3-4.28Zm206.53.79-1.62-1.14,3.27-4.63,1.62,1.14-.06.09Zm-1.32-1.2,1.27.89,3-4.28-1.27-.89Zm-206.29-.69-.06-.09-3-4.69L37.11,209l.06.09,3,4.69Zm-2.75-4.72,2.82,4.42,1.31-.83L37,209.28Zm214.48.6-1.72-1,2.81-4.93,1.72,1Zm-1.43-1.06,1.35.77,2.6-4.55-1.35-.77Zm-214-.7L31.92,204l1.72-1L36.46,208Zm-2.52-4.85,2.6,4.55,1.35-.77-2.6-4.55Zm221.5.58-1.77-.9,2.57-5.06,1.77.9Zm-1.47-1,1.38.7,2.38-4.67-1.38-.7Zm-220.93-.82,0-.1-2.52-5,1.77-.9,0,.1,2.52,5Zm-2.28-5,2.38,4.67,1.38-.7-2.38-4.67Zm227.87.56-1.81-.81,0-.1,2.28-5.08,1.81.81,0,.1Zm-1.52-.92,1.41.64,2.15-4.78-1.41-.64ZM28.22,196.6l0-.1-2.28-5.08,1.81-.81,0,.1L30,195.79Zm-2-5.07,2.15,4.78,1.41-.63L27.6,190.9Zm233.56.54-1.84-.72,0-.1,2-5.18,1.84.72,0,.1Zm-1.57-.85,1.44.57,1.91-4.88-1.44-.57Zm-232.7-1,0-.1-2-5.18,1.84-.72,0,.1,2,5.18ZM23.69,185l1.91,4.88,1.44-.57-1.91-4.88Zm238.55.53-1.88-.63,0-.1,1.77-5.28,1.88.63Zm-1.61-.77,1.47.49,1.67-5-1.47-.5ZM22.86,183.37l-1.54-5.46,1.91-.54,1.54,5.46Zm-1.27-5.31,1.42,5,1.49-.42-1.42-5Zm242.78.84-1.91-.54L264,172.9l1.91.54Zm-1.64-.69,1.49.42,1.42-5-1.49-.42ZM20.87,176.67l0-.1-1.24-5.42,1.93-.44,1.27,5.53Zm-1-5.37L21,176.41l1.51-.35L21.37,171Zm246.27.84-1.93-.44,1.27-5.53,1.93.44,0,.11Zm-1.67-.6,1.51.35,1.17-5.11-1.51-.35ZM19.25,169.87l0-.11-1-5.48,2-.35,0,.11,1,5.48Zm-.74-5.41.92,5.16,1.53-.27L20,164.19Zm249.21.55-2-.25.71-5.63,2,.25Zm-1.72-.44,1.54.19.66-5.2-1.54-.19ZM18,163l-.71-5.63,2-.25.71,5.63Zm-.47-5.44.66,5.2,1.54-.19-.66-5.2Zm251.17.54-2-.15v-.11l.42-5.55,2,.15v.11Zm-1.74-.35,1.54.12.39-5.23-1.54-.12ZM17.11,156.06v-.11l-.42-5.55,2-.15v.11l.42,5.55Zm-.2-5.46.39,5.23,1.54-.12-.39-5.23Zm252.38.52-2,0V151l.14-5.56,2,0v.11Zm-1.76-.26,1.55,0,.13-5.24-1.55,0ZM16.61,149.08l-.14-5.67,2,0,.14,5.67Zm.08-5.46.13,5.24,1.55,0-.13-5.24Zm250.86.55-.14-5.67,2,0,.14,5.67Zm.08-5.46.13,5.24,1.55,0-.13-5.24ZM18.46,142.14l-2,0V142l.14-5.56,2,0v.11Zm-1.76-.26,1.55,0,.13-5.24-1.55,0Zm250.71-4.6v-.11l-.42-5.55,2-.15v.11l.42,5.55Zm-.2-5.46.4,5.23,1.54-.12-.4-5.23ZM18.7,135.25l-2-.15V135l.42-5.55,2,.15v.11ZM17,134.91l1.54.12.4-5.23-1.54-.12Zm250-4.5-.71-5.63,2-.25.71,5.63Zm-.47-5.44.66,5.2,1.54-.19-.66-5.2ZM19.31,128.39l-2-.25.71-5.63,2,.25ZM17.59,128l1.54.19.66-5.2-1.54-.19ZM266,123.57l0-.11L265,118l2-.35,0,.11,1,5.48Zm-.74-5.41.92,5.16,1.53-.27-.92-5.16Zm-245,3.41-2-.35,0-.11,1-5.48,2,.35,0,.11Zm-1.7-.52,1.53.27.92-5.16-1.53-.27Zm246.18-4.25-1.27-5.53,1.93-.44,0,.1,1.24,5.42Zm-1-5.37,1.17,5.11,1.51-.35-1.17-5.11ZM21.64,114.82l-1.93-.44L21,108.84l1.93.44ZM20,114.21l1.51.35,1.17-5.11-1.51-.35Zm243.19-4.11-1.54-5.46,1.91-.54,1.54,5.46Zm-1.28-5.31,1.42,5,1.49-.42-1.42-5ZM23.31,107.91l-1.88-.63,0-.1,1.77-5.28,1.88.63,0,.1Zm-1.61-.77,1.47.49,1.67-5-1.47-.5Zm239.47-3.64,0-.1-1.77-5.28,1.88-.63,1.81,5.38Zm-1.53-5.24,1.67,5,1.47-.49-1.67-5ZM25.43,101.36l-1.85-.72,0-.1,2-5.18,1.84.72,0,.1Zm-1.57-.85,1.44.57,1.91-4.88-1.44-.57Zm235-3.48,0-.1-2-5.18,1.84-.72,0,.1,2,5.18ZM257,91.87,259,96.75l1.44-.57-1.91-4.88ZM27.91,94.93l-1.81-.81,0-.1,2.28-5.08,1.81.81,0,.1ZM26.38,94l1.41.64,2.15-4.78-1.41-.64Zm229.77-3.54,0-.1-2.52-5,1.77-.9,0,.1,2.52,5Zm-2.28-5,2.38,4.67,1.38-.7-2.38-4.67ZM30.73,88.65,29,87.75l2.57-5.06,1.76.9Zm-1.48-1,1.38.7L33,83.69,31.63,83ZM253.08,84.3l-2.82-4.93,1.72-1,2.82,4.93Zm-2.52-4.85,2.6,4.55,1.35-.77-2.6-4.55ZM33.89,82.53l-1.72-1L35,76.63l1.72,1Zm-1.42-1.06,1.34.77,2.6-4.55-1.35-.77Zm217.22-3.16-.06-.09-3-4.69,1.67-1.06.06.09,3,4.69Zm-2.75-4.72L249.75,78l1.31-.83-2.82-4.42Zm-209.56,3L35.7,75.54l.06-.09,3-4.7,1.67,1.06-.06.09ZM36,75.47l1.31.83,2.82-4.42L38.81,71Zm210-2.95-.06-.09-3.21-4.55,1.62-1.14.06.09,3.21,4.54Zm-3-4.58,3,4.28,1.27-.89-3-4.28ZM41.17,70.86l-1.62-1.14,3.27-4.63,1.62,1.14-.06.09Zm-1.32-1.19,1.27.89,3-4.28-1.27-.89Zm202.09-2.73-3.49-4.47L240,61.25l3.49,4.47Zm-3.19-4.43L242,66.64l1.22-1L240,61.55ZM45.31,65.11l-1.5-1.29,3.7-4.3L49,60.81Zm-1.2-1.32,1.17,1,3.42-4-1.17-1Zm193.51-2.21-3.7-4.3,1.5-1.29,3.7,4.3Zm-3.4-4.28,3.42,4,1.17-1-3.42-4ZM49.74,59.84,48.3,58.48l3.9-4.12,1.44,1.36Zm-1.13-1.37,1.13,1.07,3.6-3.81-1.13-1.07ZM233,56.23l-.08-.07-4-3.85,1.37-1.43.08.07,4,3.85Zm-3.79-3.93L233,55.93,234,54.81l-3.78-3.63ZM54.45,54.83l-.08-.08-1.3-1.35.08-.08,4-3.85.08.08,1.3,1.35-.08.08ZM53.39,53.4l1.07,1.12,3.78-3.63-1.07-1.12Zm174.68-2-4.28-3.73,1.3-1.49,4.28,3.73Zm-4-3.75,4,3.44,1-1.17-4-3.44ZM59.43,50.07l-1.3-1.49.08-.07,4.2-3.66,1.3,1.49Zm-1-1.47,1,1.17,4-3.44-1-1.17Zm164.48-1.75-.08-.07-4.36-3.45,1.23-1.55.08.07,4.36,3.45Zm-4.15-3.55,4.11,3.25,1-1.22-4.11-3.25ZM64.65,45.59,63.42,44l.08-.07,4.37-3.45,1.23,1.55-.08.07Zm-.93-1.52,1,1.22L68.8,42l-1-1.22Zm153.79-1.49-.09-.06-4.53-3.24L214,37.67l.09.06L218.66,41Zm-4.31-3.35,4.26,3.05.9-1.26L214.1,38ZM70.11,41.4,69,39.79l.09-.06,4.53-3.24,1.15,1.61-.09.06Zm-.85-1.56.9,1.26L74.42,38l-.9-1.26Zm142.63-1.23-4.77-3.08,1.07-1.67L213,36.94Zm-4.47-3.14,4.4,2.84.84-1.3-4.4-2.84Zm-131.64,2-1.07-1.67,4.77-3.08,1.08,1.67ZM75,35.91l.84,1.3,4.4-2.84-.84-1.3Zm131-1-4.91-2.84,1-1.71,4.91,2.84ZM201.44,32,206,34.65l.78-1.34-4.54-2.62ZM81.79,33.74,80.89,32l.1,0,4.95-2.55.91,1.76-.1,0Zm-.62-1.67.71,1.38L86.55,31l-.71-1.38ZM200,31.61,195,29l.91-1.76,5,2.6Zm-4.75-2.69,4.66,2.4.71-1.38L196,27.54ZM87.89,30.53l-.82-1.8,5.17-2.35.82,1.8-.1,0Zm-.54-1.7L88,30.25l4.77-2.17-.64-1.41Zm106.35-.42-5.27-2.09.73-1.84,5.27,2.09Zm-5-2.21,4.87,1.93.57-1.44-4.87-1.93ZM94.15,27.66l-.73-1.84,5.27-2.09.73,1.84Zm-.45-1.72.57,1.44,4.87-1.93L98.57,24Zm93.62-.14-.1,0L182,24l.64-1.87.1,0L188,23.92Zm-5.1-2,5,1.69.5-1.47-5-1.69Zm-81.66,1.31-.64-1.87.1,0,5.27-1.79.64,1.88-.1,0Zm-.37-1.74.5,1.47,5-1.69-.5-1.47Zm80.62.14-.1,0L175.36,22l.55-1.91.1,0,5.35,1.53Zm-5.19-1.71,5,1.44.42-1.49-5-1.44ZM107.1,23l-.54-1.91.1,0L112,19.51l.54,1.91-.1,0Zm-.28-1.76.43,1.49,5-1.44-.43-1.49Zm67.36.42-5.53-1.28.45-1.93,5.53,1.28Zm-5.27-1.45,5.1,1.19.35-1.51-5.1-1.19Zm-55.17,1-.45-1.93L118.83,18l.45,1.93Zm-.19-1.77.35,1.51,5.1-1.19-.35-1.51Zm53.9.7-.11,0-5.48-1,.35-2,.11,0,5.48,1Zm-5.33-1.18,5.16.93.27-1.53-5.16-.93Zm-41.64.82-.35-1.95.11,0,5.48-1,.35,2-.11,0ZM120.4,18l.27,1.53,5.16-.93L125.56,17Zm40.27,1L155,18.24l.25-2,5.63.72ZM155.29,18l5.2.67.2-1.54-5.2-.66Zm-28,.65-.25-2,5.63-.72.25,2Zm0-1.78.2,1.54,5.2-.67-.2-1.54Zm26.52,1.26h-.11l-5.55-.42.15-2h.11l5.55.42Zm-5.42-.63,5.22.4.12-1.54-5.22-.4Zm-14,.35,0-2,5.67-.14,0,2Zm.17-1.77,0,1.55,5.24-.13,0-1.55Zm12.39,1.65h-.11l-5.56-.14,0-2h.11l5.56.14Zm-5.45-.36,5.24.13,0-1.55-5.24-.13Z"/><path class="cls-3" d="M39.81,222.75,35,226.56l-2.57-3.27.57-.45L35,225.47l1.51-1.19L34.75,222l.57-.45,1.79,2.27,2.2-1.73.5.64Zm-3.11-4.2L34,214.81l-.59.42,2.19,3.08-1.71,1.22-2-2.77-.59.42,2,2.77L31.79,221l-2.1-3-.59.42,2.58,3.62,5-3.57Zm-3.21-4.72-5.18,3.32-.45-.7,2.33-5.33-4.07,2.61-.42-.66,5.18-3.32.45.7L29,215.78l4.07-2.61.42.66Zm-3.32-5.42-.41-.71-5.34,3.07.41.71,5.34-3.07Zm-.9-1.36-3.93-.66-1.68,3.22-.44-.86L24.1,207a7.61,7.61,0,0,1,.44-.78q-.38,0-.83-.12l-2-.35-.41-.8,3.58.57L26.69,202l.46.89-1.25,2.38-.22.39.52.07,2.61.42.45.87Zm-4-7.8-5.61,2.54-1-2.12a5.74,5.74,0,0,1-.33-.88,1.87,1.87,0,0,1-.05-.81,1.52,1.52,0,0,1,.34-.7,2,2,0,0,1,2.1-.61A2.4,2.4,0,0,1,22,198.11l.65,1.44,2.29-1,.34.74Zm-3.28.59-.66-1.45a1.69,1.69,0,0,0-.73-.9,1.05,1.05,0,0,0-.89,0,1.11,1.11,0,0,0-.52.45.92.92,0,0,0-.12.62,3.55,3.55,0,0,0,.26.71l.65,1.44,2-.91Zm.9-5.83-5.73,2.26-1-2.54a3.64,3.64,0,0,1-.3-1.23,1.37,1.37,0,0,1,.29-.85,1.75,1.75,0,0,1,.77-.58,1.55,1.55,0,0,1,1.18,0,2.14,2.14,0,0,1,1,1,2.11,2.11,0,0,1,.11-.57,4.15,4.15,0,0,1,.52-.93L20.92,189l.37.95-.89,1.23c-.26.36-.45.64-.58.86a1.86,1.86,0,0,0-.23.54,1.24,1.24,0,0,0,0,.41,2.51,2.51,0,0,0,.14.43l.35.88,2.54-1,.3.76Zm-3.5.5-.64-1.63a2.61,2.61,0,0,0-.43-.77.91.91,0,0,0-.52-.31,1,1,0,0,0-.57.05.92.92,0,0,0-.55.56,1.47,1.47,0,0,0,.1,1l.71,1.81,1.9-.75Zm1.2-6.27-1.47-4.35-.68.23,1.21,3.58-2,.67-1.09-3.22-.68.23L17,188.61l-1.79.61L14,185.78l-.68.23,1.43,4.21,5.83-2Zm-1.88-5.38-5.92,1.68-.33-1.17,3.8-2.59.8-.53-1,0-4.53-.26-.3-1,5.92-1.68.21.75-5,1.41,5.45.32.2.71-4.56,3.14,5-1.43.21.75Zm-2-7-6,1.38-.18-.8,6-1.39.18.8ZM9.3,171.09l-.18-.8,3.47-.8a4.24,4.24,0,0,1,1.48-.13,1.81,1.81,0,0,1,1,.54,2.68,2.68,0,0,1,.66,1.32,3,3,0,0,1,0,1.44,1.7,1.7,0,0,1-.66,1,4.12,4.12,0,0,1-1.45.58l-3.47.8-.18-.8,3.46-.8A3.46,3.46,0,0,0,14.6,173a1.12,1.12,0,0,0,.46-.63,1.76,1.76,0,0,0,0-.91,1.69,1.69,0,0,0-.68-1.15,2.36,2.36,0,0,0-1.61,0l-3.46.8Zm5.6-3.51-6.06,1.08-.21-1.2,4-2.2.85-.45-1-.15L8,164l-.19-1.07,6.06-1.08.14.77-5.07.91,5.39.86.13.72L9.6,167.73l5.16-.92.14.77Zm-3.23-8.83-.75.1-.29-2.32.75-.1.3,2.32Zm1.29-5.9-6.14.47-.31-4.14.72-.05.25,3.33,1.91-.15-.22-2.88.72-.05.22,2.88L12.9,152l.06.81Zm-.29-5.22-6.16.16-.11-4.45.72,0L7.22,147l1.89,0L9,143.51l.72,0,.09,3.4,2.1-.05-.1-3.77.72,0,.12,4.59Zm-.09-5.71-6.16-.16,0-.84,4.91-3.11-4.83-.12,0-.78,6.16.16,0,.84L7.77,141l4.83.12,0,.78Zm.2-6.35-6.14-.47.06-.81,6.14.47-.06.81Zm.12-1.62-3-2.61L6.79,133.2l.07-1,1.66-1a7.52,7.52,0,0,1,.78-.43c-.2-.16-.42-.34-.65-.54l-1.54-1.35.07-.89,2.76,2.35,3.4-2.05-.08,1-2.31,1.38-.39.22.41.33L13,133l-.07,1Zm.78-8.72-6.06-1.08L8,121.86a5.73,5.73,0,0,1,.22-.91,1.88,1.88,0,0,1,.42-.7,1.52,1.52,0,0,1,.67-.38,2,2,0,0,1,2.08.69,2.4,2.4,0,0,1,.22,1.88L11.36,124l2.47.44-.14.8Zm-3-1.37.28-1.57a1.69,1.69,0,0,0-.09-1.16,1,1,0,0,0-.76-.47,1.11,1.11,0,0,0-.69.08.92.92,0,0,0-.45.44,3.55,3.55,0,0,0-.19.74l-.28,1.55,2.17.39Zm4.05-4.29-6.06-1.08.48-2.69a3.64,3.64,0,0,1,.38-1.2,1.37,1.37,0,0,1,.7-.57,1.74,1.74,0,0,1,1-.09,1.55,1.55,0,0,1,1,.61,2.14,2.14,0,0,1,.33,1.39,2.09,2.09,0,0,1,.39-.43,4.13,4.13,0,0,1,.93-.52l1.84-.75-.18,1-1.4.58c-.41.17-.72.31-.94.43a1.87,1.87,0,0,0-.48.34,1.24,1.24,0,0,0-.23.34,2.52,2.52,0,0,0-.11.44l-.17.93,2.69.48-.14.8Zm-3.24-1.41.31-1.72a2.61,2.61,0,0,0,0-.88.91.91,0,0,0-.28-.53,1,1,0,0,0-.51-.26.92.92,0,0,0-.76.18,1.47,1.47,0,0,0-.45.93l-.34,1.92,2,.36Zm4.5-4.67-6-1.39,1-4.33.7.16-.82,3.54,1.84.43.76-3.31.7.16-.76,3.31,2,.47.85-3.68.7.16-1,4.47Zm1.4-5.52.21-.75-5-1.43,5.53-.28.2-.71-4.46-3.14,5,1.41.21-.75L13,100.63l-.3,1,3.72,2.6.86.59-1,0-4.59.21-.33,1.17L17.36,108Zm2.16-7-5.83-2,.26-.77,5.83,2-.26.77ZM16,92.81l.3-.76,3.31,1.3a4.23,4.23,0,0,1,1.3.74,1.81,1.81,0,0,1,.55,1,2.68,2.68,0,0,1-.21,1.46,2.94,2.94,0,0,1-.8,1.2,1.7,1.7,0,0,1-1.09.41,4.13,4.13,0,0,1-1.52-.35l-3.31-1.3.3-.76,3.31,1.3a3.47,3.47,0,0,0,1.15.3,1.12,1.12,0,0,0,.73-.26,1.76,1.76,0,0,0,.52-.75A1.69,1.69,0,0,0,20.59,95a2.36,2.36,0,0,0-1.32-.93L16,92.81Zm6.48.23.32-.71L18,90.17l5.51.54.3-.67-4-3.76,4.69,2.12.32-.71-5.61-2.54-.45,1,3.29,3.12.76.71-1-.11-4.57-.47-.5,1.11L22.44,93Zm2.22-9.16L24,83.54l1.07-2.08.67.35-1.07,2.08ZM29,79.69l-5.34-3.07L25.69,73l.63.36-1.66,2.89,1.66,1,1.44-2.51.63.36-1.44,2.51L29.36,79l-.41.71Zm2.62-4.53,2.48-3.87-.61-.39-2,3.18L29.64,73l1.83-2.86-.61-.39L29,72.56l-1.59-1,2-3.06-.61-.39-2.4,3.74,5.18,3.32Zm3.07-4.82-5-3.57.49-.68,5.81.17L32,63.46l.45-.64,5,3.57-.48.68-5.81-.17,3.94,2.8-.45.64Zm3.67-5.19.5-.64L34,60.71l-.5.64,4.84,3.8Zm1-1.28.61-.77-.71-2.55c0-.1-.08-.26-.16-.5l.45,0,2.69.14.62-.79-4-.19-1-3.49-.55.7.53,2q.11.45.24.81a7.62,7.62,0,0,0-.89-.08l-1.93-.09-.6.76,3.62.18,1,3.85Zm5.55-6.76-4.65-4,1.52-1.76a5.65,5.65,0,0,1,.66-.67,1.87,1.87,0,0,1,.72-.39,1.52,1.52,0,0,1,.77,0,2,2,0,0,1,1.43,1.65,2.4,2.4,0,0,1-.77,1.72l-1,1.19,1.9,1.64-.53.62ZM43,54.38l1-1.2a1.69,1.69,0,0,0,.51-1,1.05,1.05,0,0,0-.41-.79,1.11,1.11,0,0,0-.63-.28.92.92,0,0,0-.61.15,3.54,3.54,0,0,0-.54.54l-1,1.19L43,54.38Zm5.8-1.51.56-.59-2-1.89.65-.68a2.54,2.54,0,0,1,.33-.31,1.23,1.23,0,0,1,.37-.16,1.86,1.86,0,0,1,.58,0c.25,0,.59.08,1,.16l1.49.29.7-.74-1.95-.39a4.15,4.15,0,0,0-1.06-.08,2.1,2.1,0,0,0-.56.14,2.14,2.14,0,0,0,.49-1.34,1.55,1.55,0,0,0-.51-1.07,1.75,1.75,0,0,0-.85-.46,1.37,1.37,0,0,0-.9.09,3.63,3.63,0,0,0-1,.79l-1.88,2,4.46,4.25Zm-1.93-3L45.35,48.5l1.34-1.41a1.48,1.48,0,0,1,.89-.53.92.92,0,0,1,.74.27,1,1,0,0,1,.29.5.91.91,0,0,1-.06.6,2.6,2.6,0,0,1-.52.71l-1.21,1.27Zm6.32-1.42L48.9,44,52.12,41l.5.52L50,44l1.31,1.37L53.76,43l.5.52L51.8,45.89l1.45,1.52L56,44.8l.5.52-3.32,3.17Zm4.21-3.84.59-.51-3.44-4L59.3,43l.55-.48-2-5.07,3.37,3.89.59-.51-4-4.65-.82.71,1.68,4.21q.26.64.4,1l-.82-.5-4-2.34-.92.8,4,4.65ZM63,40l-3.81-4.84.64-.5,3.8,4.84L63,40Zm1.48-8.76.67-.47,2.06,2.9A4.24,4.24,0,0,1,67.91,35a1.81,1.81,0,0,1-.1,1.16,2.68,2.68,0,0,1-1,1.11,2.94,2.94,0,0,1-1.32.58,1.7,1.7,0,0,1-1.14-.25,4.13,4.13,0,0,1-1.09-1.12l-2.06-2.9.67-.47L64,36a3.49,3.49,0,0,0,.81.88,1.12,1.12,0,0,0,.76.18,1.76,1.76,0,0,0,.84-.34,1.69,1.69,0,0,0,.8-1.07,2.36,2.36,0,0,0-.6-1.5l-2.06-2.9ZM69.82,35l.66-.42-2.83-4.42L72,33.62l.62-.4-1.27-5.31,2.78,4.34.66-.42-3.32-5.18-.92.59,1.06,4.41q.16.67.26,1L71.1,32l-3.58-2.88-1,.66L69.82,35Zm6.87-6.45-.38-.66,2-1.17.38.66-2,1.17Zm5.9-1.15-2.81-5.48L83.48,20l.33.64-3,1.52.87,1.71,2.57-1.32.33.64L82,24.54,83.32,27l-.73.37Zm4.67-2.34-2.54-5.61,4.05-1.83.3.66-3.31,1.5.78,1.72,3.1-1.4.3.66-3.1,1.4.86,1.91,3.44-1.56.3.66-4.18,1.89Zm5.21-2.34.73-.29-1.77-4.5,4.78,3.31.78-.31-2.26-5.73L94,15.5,95.77,20,91,16.68l-.78.31,2.26,5.73Zm5.92-2.32-2-5.83.77-.26,2,5.83-.77.26Zm1.54-.52.93-.31.79-2.52c0-.1.08-.26.14-.5l.36.27,2.18,1.58.95-.32-3.22-2.32,1.09-3.46-.85.29-.64,1.95c-.1.29-.18.56-.24.81a7.63,7.63,0,0,0-.7-.55l-1.57-1.13-.92.31,2.94,2.13-1.23,3.79Zm8.35-2.6-1.68-5.92,2.24-.64a5.71,5.71,0,0,1,.92-.2,1.88,1.88,0,0,1,.81.07,1.52,1.52,0,0,1,.64.44,2,2,0,0,1,.29,2.17,2.4,2.4,0,0,1-1.59,1l-1.52.43.69,2.42-.79.22Zm-.1-3.33,1.53-.43a1.69,1.69,0,0,0,1-.59,1.05,1.05,0,0,0,.09-.89,1.11,1.11,0,0,0-.37-.58.92.92,0,0,0-.59-.21,3.57,3.57,0,0,0-.75.16l-1.52.43.6,2.12Zm5.68,1.93-1.38-6,2.66-.61a3.64,3.64,0,0,1,1.26-.12,1.36,1.36,0,0,1,.8.42,1.74,1.74,0,0,1,.46.85,1.55,1.55,0,0,1-.16,1.17,2.15,2.15,0,0,1-1.15.85,2.09,2.09,0,0,1,.55.19,4.11,4.11,0,0,1,.84.65l1.41,1.39-1,.23-1.08-1.07c-.31-.31-.57-.54-.76-.7a1.86,1.86,0,0,0-.5-.31,1.23,1.23,0,0,0-.4-.08,2.59,2.59,0,0,0-.45.07L114,13l.61,2.66-.8.18Zm0-3.54,1.7-.39a2.6,2.6,0,0,0,.82-.31.91.91,0,0,0,.38-.47,1,1,0,0,0,0-.57.92.92,0,0,0-.47-.63,1.47,1.47,0,0,0-1,0l-1.9.44.46,2Zm6.06,2.3,4.52-.81-.13-.71-3.72.66-.37-2.07,3.34-.6-.13-.71-3.34.6-.33-1.86,3.57-.64-.13-.71-4.38.78,1.08,6.06Zm5.63-.88-.78-6.11L126,7.49l2,4.14.41.87c0-.23.11-.57.2-1L129.55,7l1.08-.14L131.4,13l-.78.1L130,8l-1.13,5.34-.73.09-2.42-5,.66,5.2-.78.1Zm7.28-.76-.47-6.14.81-.06.47,6.14-.81.06ZM139,6.5l.82,0,.09,3.55a4.24,4.24,0,0,1-.17,1.48,1.81,1.81,0,0,1-.73.91,2.68,2.68,0,0,1-1.43.38,2.94,2.94,0,0,1-1.42-.26,1.7,1.7,0,0,1-.81-.84,4.12,4.12,0,0,1-.27-1.54L135,6.6l.82,0,.09,3.55a3.47,3.47,0,0,0,.18,1.18,1.12,1.12,0,0,0,.52.57,1.76,1.76,0,0,0,.89.18,1.69,1.69,0,0,0,1.27-.44,2.36,2.36,0,0,0,.34-1.58L139,6.5Zm2.32,6,.16-6.16,1.22,0L144,10.79q.19.61.27.92.11-.33.36-1l1.59-4.24,1.09,0-.16,6.16-.78,0,.13-5.15-1.93,5.1-.73,0L142.2,7.29l-.13,5.24-.78,0Zm9.31-1.57.06-.75,2.33.18-.06.75-2.33-.18Zm5.54,2.26.78-6.11,4.12.52-.09.72-3.31-.42-.24,1.9,2.87.36-.09.72-2.87-.36-.35,2.77-.81-.1Zm5.2.58,1.08-6.06,4.38.78-.13.71-3.57-.64-.33,1.86,3.34.6-.13.71-3.34-.6-.37,2.07,3.72.66-.13.71-4.52-.81Zm5.65.89,1.39-6,.82.19,2.06,5.44,1.09-4.71.76.18-1.39,6-.82-.19-2.06-5.44-1.09,4.71-.76-.18Zm6.19,1.43,1.39-6,.8.18-1.38,6-.8-.18Zm1.6.32.94.27,2.08-1.63.4-.34c0,.14.09.28.14.43l.9,2.54,1,.27-1.33-3.74L181.72,12l-.86-.24L179.23,13q-.37.27-.66.53a7.66,7.66,0,0,0-.27-.85l-.65-1.82-.93-.27L177.93,14l-3.16,2.42Zm8.4,2.46,2-5.83,2.2.74a5.71,5.71,0,0,1,.87.36,1.88,1.88,0,0,1,.63.52,1.51,1.51,0,0,1,.28.72,2,2,0,0,1-1,1.95,2.4,2.4,0,0,1-1.89-.06l-1.5-.51-.81,2.38-.77-.26Zm1.81-2.8,1.51.51a1.69,1.69,0,0,0,1.16.08,1.05,1.05,0,0,0,.58-.68,1.11,1.11,0,0,0,0-.69.91.91,0,0,0-.37-.51,3.54,3.54,0,0,0-.7-.29L185.68,14,185,16.09Zm3.63,4.68.76.3,1-2.54.88.35a2.54,2.54,0,0,1,.41.19,1.24,1.24,0,0,1,.29.29,1.86,1.86,0,0,1,.23.53c.07.24.15.57.23,1l.29,1.49.95.37-.38-2a4.13,4.13,0,0,0-.33-1,2.1,2.1,0,0,0-.35-.47,2.14,2.14,0,0,0,1.43-.05,1.56,1.56,0,0,0,.8-.87,1.75,1.75,0,0,0,.1-1,1.36,1.36,0,0,0-.42-.79,3.62,3.62,0,0,0-1.1-.61l-2.54-1-2.26,5.73Zm2-2.9.75-1.9,1.81.71a1.47,1.47,0,0,1,.83.63.92.92,0,0,1,0,.78,1,1,0,0,1-.35.45.91.91,0,0,1-.58.17,2.6,2.6,0,0,1-.85-.21l-1.63-.64Zm3.74,5.21,2.54-5.61L201,19.3l-.3.66-3.31-1.49-.78,1.72,3.1,1.4-.3.66-3.1-1.4-.86,1.91,3.44,1.56-.3.66-4.18-1.89Zm5.2,2.35.7.36,2.39-4.67-.81,5.48.65.33,3.95-3.77-2.35,4.59.7.36,2.81-5.48-1-.5-3.27,3.14-.74.73q.06-.31.15-.95l.69-4.54-1.09-.56-2.81,5.48Zm6.49,3.38,3.07-5.34.71.41-3.07,5.34-.71-.41Zm8.52-2.21-1.77,3.08q-.58,1-1.11,1.17a1.69,1.69,0,0,1-1.31-.28,1.77,1.77,0,0,1-.66-.62,1.13,1.13,0,0,1-.15-.76,3.48,3.48,0,0,1,.46-1.1L211.8,25l-.71-.41-1.77,3.08a4.12,4.12,0,0,0-.57,1.46,1.7,1.7,0,0,0,.25,1.14,2.94,2.94,0,0,0,1.08,1,2.68,2.68,0,0,0,1.42.42,1.81,1.81,0,0,0,1.1-.39,4.23,4.23,0,0,0,.92-1.17L215.28,27l-.71-.41Zm-1.28,6.55L216.62,28l1,.66-1.13,4.46q-.16.62-.24.93l.81-.65,3.56-2.81.92.59-3.32,5.18-.66-.42,2.78-4.34-4.29,3.37-.62-.4,1.34-5.38L214,33.57l-.66-.42Zm6.69,2.3,1.91,1.36.44-.62-1.91-1.36-.44.62Zm3.48,4.92,3.8-4.84,3.27,2.57-.45.57-2.62-2.06-1.18,1.51,2.27,1.79-.45.57-2.27-1.79-1.73,2.2-.64-.5Zm4,3.3,3.47,3,.47-.55-2.85-2.47L230,42.08l2.57,2.22.47-.55-2.57-2.22,1.24-1.43,2.74,2.38.47-.55L231.54,39l-4,4.65Zm4.27,3.79L236,43l.61.58-1,5.73,3.33-3.5.57.54-4.25,4.46-.61-.58,1-5.73L232.35,48l-.57-.54Zm4.55,4.44.56.59,4.46-4.25-.56-.59-4.46,4.25Zm1.12,1.18.68.71,2.62-.34.52-.09c0,.14-.07.29-.1.44l-.52,2.64.69.72.75-3.9,3.59-.47-.62-.65-2,.24c-.31,0-.58.07-.84.12a7.46,7.46,0,0,0,.21-.87l.37-1.9-.67-.7-.7,3.56-4,.48Zm5.86,6.5,4.84-3.8,1.44,1.83a5.62,5.62,0,0,1,.53.77,1.88,1.88,0,0,1,.25.78,1.52,1.52,0,0,1-.16.76,2,2,0,0,1-1.9,1.09,2.4,2.4,0,0,1-1.54-1.09l-1-1.24-2,1.55-.5-.64Zm3-1.36,1,1.25a1.69,1.69,0,0,0,.92.7,1.05,1.05,0,0,0,.86-.25,1.12,1.12,0,0,0,.4-.56.92.92,0,0,0,0-.63,3.59,3.59,0,0,0-.43-.63l-1-1.24-1.73,1.36Zm.55,5.85.47.67,2.23-1.58.55.77a2.62,2.62,0,0,1,.24.39,1.22,1.22,0,0,1,.08.4,1.87,1.87,0,0,1-.09.58c-.07.24-.19.56-.35,1l-.57,1.41.59.83.75-1.84a4.1,4.1,0,0,0,.28-1,2.06,2.06,0,0,0,0-.58,2.14,2.14,0,0,0,1.22.74,1.55,1.55,0,0,0,1.15-.29,1.74,1.74,0,0,0,.61-.75,1.37,1.37,0,0,0,.08-.9,3.65,3.65,0,0,0-.59-1.12l-1.58-2.22-5,3.57Zm3.28-1.33,1.66-1.18L253,63.15a1.47,1.47,0,0,1,.35,1,.92.92,0,0,1-.4.67,1,1,0,0,1-.54.19.92.92,0,0,1-.58-.17,2.6,2.6,0,0,1-.6-.64l-1-1.43Zm.37,6.36,5.18-3.32,2.4,3.74-.61.39-2-3.06-1.59,1,1.83,2.86-.61.39-1.83-2.86L251.6,69.4l2,3.18L253,73l-2.48-3.87Zm3.15,4.76.39.68,4.55-2.62L255,76.08l.37.64,5.36-1-4.47,2.57.39.68L262,75.88l-.54-.95-4.45.85L256,76l.64-.71,3.05-3.44L259,70.79l-5.34,3.07Zm3.65,6.35,5.34-3.07.41.71-5.34,3.07-.41-.71ZM265.73,83l-3.16,1.62A2.36,2.36,0,0,1,261,85a1.69,1.69,0,0,1-.94-1,1.76,1.76,0,0,1-.22-.88,1.12,1.12,0,0,1,.29-.72,3.45,3.45,0,0,1,1-.67l3.16-1.62-.37-.73L260.73,81a4.12,4.12,0,0,0-1.27.91,1.7,1.7,0,0,0-.41,1.09,2.94,2.94,0,0,0,.38,1.39,2.68,2.68,0,0,0,1,1.12,1.81,1.81,0,0,0,1.13.27,4.24,4.24,0,0,0,1.41-.49l3.17-1.62-.37-.73Zm-4.56,4.76,5.61-2.54.5,1.11-3.37,3.12-.71.64,1-.11,4.51-.41.45,1-5.61,2.54-.32-.71L268,90.25l-5.44.48-.3-.67,4-3.78-4.78,2.16-.32-.71Zm4.43,5.54.86,2.18.7-.28L266.31,93l-.7.28Zm.31,6,5.83-2,1.33,3.93-.68.23-1.07-3.16-1.82.61.93,2.74-.68.23-.93-2.74-2.65.9-.26-.77Zm1.68,5,5.92-1.68,1.21,4.28-.69.2-1-3.49-1.82.52.93,3.27-.69.2-.93-3.27-2,.57,1,3.63-.69.2-1.25-4.42Zm1.59,5.48.18.76,4.71-1.09-4,4.24.19.82,6-1.38-.18-.76-4.71,1.09,4-4.24-.19-.82-6,1.38Zm1.43,6.19,6-1.39.18.8-6,1.38-.18-.8Zm.33,1.59.17,1,2.38,1.16.48.21-.32.31-1.89,1.92.18,1,2.78-2.83,3.26,1.59-.16-.88L276,120c-.27-.14-.53-.26-.76-.36a7.44,7.44,0,0,0,.65-.61l1.35-1.38-.17-1-2.55,2.58-3.56-1.78Zm1.39,8.64,6.11-.78.29,2.31a5.71,5.71,0,0,1,.06.94,1.86,1.86,0,0,1-.19.79,1.51,1.51,0,0,1-.53.57,2,2,0,0,1-2.19,0,2.4,2.4,0,0,1-.77-1.72l-.2-1.57-2.49.32-.1-.81Zm3.31.4.2,1.58a1.69,1.69,0,0,0,.43,1.08,1,1,0,0,0,.86.22,1.11,1.11,0,0,0,.63-.28.91.91,0,0,0,.3-.56,3.52,3.52,0,0,0,0-.76l-.2-1.56-2.18.28Zm-2.7,5.32,6.14-.47.21,2.72a3.62,3.62,0,0,1-.07,1.26,1.36,1.36,0,0,1-.53.73,1.75,1.75,0,0,1-.91.32,1.55,1.55,0,0,1-1.13-.34,2.14,2.14,0,0,1-.67-1.26,2.13,2.13,0,0,1-.27.51,4.16,4.16,0,0,1-.77.73l-1.59,1.19-.08-1,1.22-.91c.35-.26.62-.48.8-.65a1.86,1.86,0,0,0,.38-.44,1.23,1.23,0,0,0,.13-.38,2.54,2.54,0,0,0,0-.45l-.07-.94-2.73.21-.06-.81Zm3.49.55.13,1.74a2.62,2.62,0,0,0,.18.86.91.91,0,0,0,.41.45,1,1,0,0,0,.56.12.92.92,0,0,0,.69-.37,1.47,1.47,0,0,0,.2-1l-.15-1.94-2,.15Zm-3.11,5.64,6.16-.16.11,4.45-.72,0-.09-3.63-1.89,0,.09,3.4-.72,0-.09-3.4-2.1.05.1,3.77-.72,0-.12-4.59Zm.11,5.7,6.16.16,0,1.22-4.39,1.35-.92.27,1,.35,4.24,1.59,0,1.09-6.16-.16,0-.78,5.15.13L273.35,147l0-.73,5.29-1.64-5.24-.13,0-.78Zm-.25,7.31,6.14.47-.06.81-6.14-.47.06-.81Zm5.66,6.73-.06.81-3.55-.27a4.23,4.23,0,0,1-1.45-.32,1.81,1.81,0,0,1-.83-.82,2.68,2.68,0,0,1-.23-1.46,2.94,2.94,0,0,1,.4-1.39,1.7,1.7,0,0,1,.92-.72,4.13,4.13,0,0,1,1.56-.12l3.55.27-.06.81-3.54-.27a3.48,3.48,0,0,0-1.19.06,1.12,1.12,0,0,0-.62.46,1.76,1.76,0,0,0-.27.87,1.69,1.69,0,0,0,.31,1.3,2.36,2.36,0,0,0,1.53.5l3.54.27Zm-6.46,1.67,6.11.78-.15,1.21-4.51.9-.94.18.94.45,4.06,2-.14,1.08-6.11-.78.1-.78,5.11.65L272,162.74l.09-.73,5.43-1.1-5.2-.66.1-.78Zm.8,7,.75.13-.41,2.3-.75-.13.41-2.3Zm-2.94,5.25,6,1.38-.93,4-.7-.16.75-3.25-1.87-.43-.65,2.82-.7-.16.65-2.82-2.72-.63.18-.8ZM269,176.83l-1.25,4.42.69.2,1-3.63,2,.57-.93,3.27.7.2.93-3.27,1.82.52-1,3.49.69.2,1.21-4.28L269,176.83Zm-1.59,5.49,5.83,2-.27.79-5.61,1.51,4.58,1.55-.25.74-5.83-2,.27-.79,5.61-1.51-4.58-1.55.25-.74Zm-2.06,6-.3.76,5.73,2.26.3-.76-5.73-2.26Zm-.6,1.51,2.1,3.39,3.53-.86-.36.9-1.88.47a7.58,7.58,0,0,1-.88.18q.22.31.46.71l1.07,1.74-.33.83-1.94-3.06-3.85,1,.37-.93,2.61-.64.44-.1-.29-.43-1.41-2.24.36-.91Zm-3.33,8.09,5.48,2.81-1.06,2.07a5.71,5.71,0,0,1-.48.81,1.88,1.88,0,0,1-.6.55,1.52,1.52,0,0,1-.75.17,2,2,0,0,1-1.78-1.27,2.4,2.4,0,0,1,.34-1.86l.72-1.41L261,198.66l.37-.73Zm2.51,2.2-.73,1.42a1.68,1.68,0,0,0-.25,1.13,1.05,1.05,0,0,0,.59.67,1.11,1.11,0,0,0,.68.13.92.92,0,0,0,.56-.29,3.59,3.59,0,0,0,.39-.65l.72-1.4-2-1Zm-5,3-.41.71,2.37,1.36-.47.82a2.55,2.55,0,0,1-.25.38,1.23,1.23,0,0,1-.33.24,1.85,1.85,0,0,1-.56.15c-.25,0-.59.06-1,.08l-1.52.07-.51.88,2-.09a4.13,4.13,0,0,0,1-.18,2.08,2.08,0,0,0,.51-.27,2.14,2.14,0,0,0-.16,1.42,1.55,1.55,0,0,0,.75.92,1.75,1.75,0,0,0,.93.24,1.37,1.37,0,0,0,.85-.3,3.63,3.63,0,0,0,.77-1l1.36-2.37-5.34-3.07Zm2.58,2.42,1.77,1-1,1.69a1.47,1.47,0,0,1-.74.72.92.92,0,0,1-.78-.09,1,1,0,0,1-.4-.42.91.91,0,0,1-.08-.6,2.61,2.61,0,0,1,.33-.81l.87-1.52Zm-5.67,3,5.34,3.07-2.22,3.85-.63-.36,1.81-3.15-1.64-.94-1.69,2.95-.63-.36,1.69-2.95-1.82-1-1.88,3.27-.63-.36,2.29-4Zm-3,4.86-.42.66,4.42,2.83-5.38-1.34-.4.62,3.37,4.29-4.34-2.78-.42.66,5.18,3.32.59-.92-2.8-3.56-.65-.81.93.24,4.46,1.13.66-1-5.18-3.32Zm-4.12,6,5,3.57-.47.67-5-3.57.47-.67Zm1,8.8L247,226a2.36,2.36,0,0,1-1-1.27,1.69,1.69,0,0,1,.47-1.25,1.76,1.76,0,0,1,.71-.57,1.12,1.12,0,0,1,.78,0,3.48,3.48,0,0,1,1,.61l2.79,2.2.5-.64-2.8-2.2a4.13,4.13,0,0,0-1.36-.77,1.7,1.7,0,0,0-1.16.08,2.94,2.94,0,0,0-1.11.93,2.68,2.68,0,0,0-.62,1.34,1.81,1.81,0,0,0,.23,1.14,4.23,4.23,0,0,0,1,1.08l2.8,2.2.5-.64Zm-6.18-2.11,4.65,4-.8.92-4.25-1.75-.88-.37.53.9,2.27,3.92-.71.82-4.65-4,.51-.59,3.89,3.37-2.72-4.73.48-.55,5.13,2.09-4-3.44.51-.59Zm-3.13,6.38-1.61,1.69.55.52L241,233l-.55-.52Zm-5.27,2.84,4.25,4.46-3,2.87-.5-.52,2.41-2.3L237,238.43l-2.09,2-.5-.52,2.09-2-1.93-2,.59-.56ZM231.41,239l-3.47,3,.47.55,2.85-2.47,1.37,1.59-2.57,2.22.47.55,2.57-2.22,1.24,1.43L231.61,246l.47.55,3.36-2.91-4-4.65Zm-4.27,3.79,3.8,4.84-.66.52-5.53-1.8,3,3.8-.61.48-3.8-4.84.66-.52,5.53,1.8-3-3.8.62-.48Zm-5,3.93-.64.5,3.8,4.84.64-.5-3.8-4.84Zm-1.29,1-.8.57,0,2.65c0,.1,0,.28,0,.52l-.42-.16-2.54-.89-.82.58,3.75,1.3,0,3.62.73-.52.05-2c0-.31,0-.59,0-.84a7.55,7.55,0,0,0,.83.33l1.83.63.79-.56-3.43-1.2.09-4Zm-7.21,5,3.32,5.18-2,1.26a5.78,5.78,0,0,1-.82.46,1.88,1.88,0,0,1-.8.17,1.51,1.51,0,0,1-.74-.23,2,2,0,0,1-.9-2,2.4,2.4,0,0,1,1.23-1.43l1.33-.85L213,253.09l.69-.44Zm1.06,3.16-1.34.86a1.69,1.69,0,0,0-.79.85,1,1,0,0,0,.17.88,1.11,1.11,0,0,0,.52.45.92.92,0,0,0,.63,0,3.54,3.54,0,0,0,.67-.36l1.33-.85-1.19-1.85Zm-6-.15-.71.41,1.36,2.37-.82.47a2.51,2.51,0,0,1-.41.2,1.23,1.23,0,0,1-.4,0,1.85,1.85,0,0,1-.56-.15c-.23-.09-.54-.24-.93-.45l-1.35-.7-.88.51,1.76.92a4.14,4.14,0,0,0,1,.38,2.09,2.09,0,0,0,.58,0,2.15,2.15,0,0,0-.85,1.15,1.55,1.55,0,0,0,.18,1.17,1.74,1.74,0,0,0,.68.68,1.37,1.37,0,0,0,.88.17,3.65,3.65,0,0,0,1.17-.48l2.37-1.36-3.07-5.34Zm1,3.39,1,1.77-1.69,1a1.47,1.47,0,0,1-1,.25.92.92,0,0,1-.63-.47,1,1,0,0,1-.13-.56.91.91,0,0,1,.23-.56,2.58,2.58,0,0,1,.7-.53l1.52-.87Zm-6.44-.38,2.81,5.48-4,2-.33-.64,3.23-1.65-.86-1.68-3,1.55-.33-.64,3-1.55-1-1.87-3.36,1.72-.33-.64,4.09-2.09Zm-5.11,2.53-.71.32,2.16,4.78-3.78-4-.67.3.48,5.44-2.12-4.69-.71.32,2.54,5.61,1-.45-.41-4.51c0-.46-.08-.8-.11-1l.64.71,3.12,3.37,1.11-.5-2.54-5.61Zm-6.72,2.9,2.26,5.73-.76.3-2.26-5.73.76-.3Zm-3.91,8-1.14-3.37a2.36,2.36,0,0,1-.14-1.61,1.69,1.69,0,0,1,1.08-.79,1.75,1.75,0,0,1,.9-.09,1.12,1.12,0,0,1,.67.39,3.44,3.44,0,0,1,.52,1.07l1.14,3.37.77-.26-1.14-3.37a4.14,4.14,0,0,0-.72-1.39,1.69,1.69,0,0,0-1-.57,2.94,2.94,0,0,0-1.43.17,2.67,2.67,0,0,0-1.25.79,1.81,1.81,0,0,0-.43,1.08,4.23,4.23,0,0,0,.27,1.46l1.14,3.37.77-.26Zm-4-5.05,1.68,5.92-1.17.33-2.59-3.79-.53-.8q0,.35,0,1l-.26,4.53-1,.3-1.68-5.92.75-.21,1.41,5,.32-5.45.71-.2,3.14,4.56-1.43-5,.75-.21Zm-6,3.63.21.73-2.25.64-.21-.73,2.25-.64Zm-6-.43,1.39,6-4,.93-.16-.7,3.25-.75-.43-1.87-2.82.65-.16-.7,2.82-.65-.63-2.72.8-.18Zm-5.12,1,1.08,6.06-4.38.78-.13-.71,3.57-.64-.33-1.86-3.34.6-.13-.71,3.34-.6-.37-2.07-3.72.66-.13-.71,4.52-.81Zm-5.64.9.78,6.11-.83.11L156.9,274l.61,4.79-.78.1-.78-6.11.83-.11,3.81,4.39-.61-4.79.78-.1Zm-6.32.71.47,6.14-.81.06-.47-6.14.82-.06Zm-1.62.12-2.13,3.37,2.31,2.8-1,.07-1.24-1.49a7.53,7.53,0,0,1-.54-.71q-.18.34-.44.72l-1.1,1.73-.89.07,1.91-3.08-2.54-3,1-.08,1.72,2.07.28.35.26-.45,1.4-2.25,1-.07Zm-8.74.43-.16,6.16-2.32-.06a5.74,5.74,0,0,1-.94-.08,1.87,1.87,0,0,1-.75-.31,1.52,1.52,0,0,1-.48-.61,2,2,0,0,1,.37-2.16,2.4,2.4,0,0,1,1.82-.5l1.58,0,.06-2.51.82,0Zm-.9,3.21-1.59,0a1.69,1.69,0,0,0-1.13.27,1,1,0,0,0-.35.82,1.11,1.11,0,0,0,.18.67.91.91,0,0,0,.51.38,3.53,3.53,0,0,0,.76.07l1.58,0,.06-2.2Zm-4.86-3.25-.47,6.14-2.72-.21a3.64,3.64,0,0,1-1.24-.26,1.37,1.37,0,0,1-.64-.64,1.74,1.74,0,0,1-.18-.94,1.55,1.55,0,0,1,.51-1.07,2.15,2.15,0,0,1,1.35-.47,2.07,2.07,0,0,1-.47-.34,4.13,4.13,0,0,1-.61-.87l-.93-1.75,1,.08.72,1.34c.21.39.38.68.52.89a1.85,1.85,0,0,0,.38.44,1.23,1.23,0,0,0,.36.19,2.48,2.48,0,0,0,.45.06l.94.07.21-2.73.81.06Zm-1.08,3.37-1.74-.13a2.59,2.59,0,0,0-.88,0,.91.91,0,0,0-.5.33,1,1,0,0,0-.2.54.92.92,0,0,0,.26.74,1.47,1.47,0,0,0,1,.36l1.94.15.15-2ZM132.14,273l-.47,6.14-4.43-.34.05-.72,3.62.28.14-1.89-3.39-.26.05-.72,3.39.26.16-2.09-3.76-.29.05-.72,4.58.35Zm-5.67-.59-.78,6.11-1.21-.15-.9-4.51c-.08-.42-.14-.73-.18-.94l-.45.94-2,4.06-1.08-.14.78-6.11.78.1-.65,5.11,2.43-4.88.73.09,1.1,5.43.66-5.2.78.1Zm-7.23-1.12-1.08,6.06-.8-.14,1.08-6.06.8.14ZM111.71,276l-.8-.18.8-3.46a4.24,4.24,0,0,1,.54-1.39,1.81,1.81,0,0,1,.94-.69,2.68,2.68,0,0,1,1.48,0,2.93,2.93,0,0,1,1.31.61,1.7,1.7,0,0,1,.57,1,4.13,4.13,0,0,1-.12,1.56l-.8,3.47-.8-.18.8-3.46a3.48,3.48,0,0,0,.12-1.19,1.12,1.12,0,0,0-.37-.69,1.76,1.76,0,0,0-.82-.4,1.69,1.69,0,0,0-1.33.11,2.36,2.36,0,0,0-.72,1.44l-.8,3.46Zm-.73-6.46-.75-.21-1.43,5-.28-5.53-.71-.2-3.14,4.47,1.41-5-.75-.21-1.68,5.92,1,.3,2.6-3.72.59-.86q0,.32,0,1l.21,4.59,1.17.33,1.68-5.92Zm-7.12-.09-.24.72-2.22-.75.24-.72,2.22.75ZM99,265.89l-2.26,5.73-3.86-1.52.27-.67,3.1,1.22.7-1.78L94.3,267.8l.26-.67,2.69,1.06,1-2.6.76.3Zm-4.9-1.82L90,262.18l-.3.66,3.44,1.56-.86,1.91-3.1-1.4-.3.66,3.1,1.4-.78,1.72-3.31-1.5-.3.66,4.05,1.83,2.54-5.61Zm-5.2-2.35-2.54,5.61-.76-.35-1-5.74-2,4.4-.71-.32,2.54-5.61.76.35,1,5.73,2-4.4.71.32Zm-5.72-2.78-.73-.37L79.68,264l.73.37Z"/><path class="cls-3" d="M81.75,258.24l-3.66,1.58.34,3.61-.84-.48L77.4,261a7.63,7.63,0,0,1,0-.89q-.34.17-.77.35l-1.88.81-.77-.45,3.31-1.47-.39-3.95.87.5.25,2.68c0,.15,0,.3,0,.45l.47-.23,2.42-1.07.85.49Zm-7.55-4.42-.69-.44-1.36,2.11-1.33-.85a2.4,2.4,0,0,0-1.82-.52,2,2,0,0,0-1.43,1.65,1.51,1.51,0,0,0,.1.77,1.88,1.88,0,0,0,.49.65,5.65,5.65,0,0,0,.76.56l2,1.25,3.32-5.18Zm-2.43,2.28L70.57,258l-1.33-.85a3.5,3.5,0,0,1-.61-.46.92.92,0,0,1-.24-.58,1.11,1.11,0,0,1,.19-.66,1,1,0,0,1,.73-.52,1.68,1.68,0,0,1,1.1.36l1.34.86Zm-2.39-5.42-3.57,5-2.22-1.58a3.65,3.65,0,0,1-.92-.86,1.37,1.37,0,0,1-.22-.87,1.74,1.74,0,0,1,.33-.9,1.55,1.55,0,0,1,1-.66,2.15,2.15,0,0,1,1.4.29,2.11,2.11,0,0,1-.22-.53,4.14,4.14,0,0,1-.07-1.06l.1-2,.83.59-.08,1.52c0,.44,0,.78,0,1a1.86,1.86,0,0,0,.1.57,1.24,1.24,0,0,0,.21.35,2.55,2.55,0,0,0,.35.29l.77.55,1.59-2.23.67.47ZM66.71,253l-1.43-1a2.6,2.6,0,0,0-.78-.41.91.91,0,0,0-.6,0,1,1,0,0,0-.45.36.92.92,0,0,0-.16.77,1.47,1.47,0,0,0,.65.81l1.59,1.13L66.71,253Zm-2.38-6-3.61-2.84-.45.57,3,2.33-1.3,1.65-2.67-2.1-.45.57,2.67,2.1-1.17,1.49-2.85-2.24-.45.57,3.5,2.75,3.8-4.84Zm-4.48-3.53-4,4.65-.92-.8,1.75-4.25.37-.88-.9.53L52.21,245l-.82-.71,4-4.66.59.51-3.37,3.89,4.73-2.72.55.48L55.83,247l3.43-4,.59.51Zm-5.49-4.84-.59-.56-4.25,4.46.59.56,4.25-4.46Zm-8.8.12L48,236.23a2.36,2.36,0,0,1,1.36-.87,1.69,1.69,0,0,1,1.2.59,1.76,1.76,0,0,1,.5.76,1.12,1.12,0,0,1,0,.78,3.46,3.46,0,0,1-.71,1L47.88,241l.59.56L50.93,239a4.12,4.12,0,0,0,.9-1.28,1.7,1.7,0,0,0,0-1.17,2.94,2.94,0,0,0-.82-1.19,2.68,2.68,0,0,0-1.28-.74,1.81,1.81,0,0,0-1.16.12,4.24,4.24,0,0,0-1.17.92L45,238.24l.59.56Zm2.7-6-4.65,4-.8-.92,2.34-4,.5-.82-1,.4-4.21,1.68-.71-.82,4.65-4,.51.59L41,232.35l5.07-2,.48.55-2.8,4.78,4-3.43Z"/><path class="cls-4" d="M770.07,141.7l-12.2,15.25a32.59,32.59,0,0,0-3.85,6.14,12.78,12.78,0,0,0-1.26,5.21,6.93,6.93,0,0,0,4,6.65c2.67,1.36,7.18,2,13.62,2v8.17H717.83V177q12.38-1.08,25.34-17.68c.83-1,1.49-1.82,1.95-2.35l19.15-24.09L729.42,84c-1.9-2.75-3.55-4.54-5-5.34a10.47,10.47,0,0,0-5.29-1.23h-.48v-8h55.68V77.8h-4a12.78,12.78,0,0,0-5.39.94,2.91,2.91,0,0,0-2,2.59,4.83,4.83,0,0,0,.48,1.92,12.07,12.07,0,0,0,1.5,2.38l17.44,24.7,13.46-17a20.93,20.93,0,0,0,2.59-4,8.31,8.31,0,0,0,.77-3.36,6.52,6.52,0,0,0-3.55-6.28c-2.38-1.26-6.33-1.87-11.86-1.87V69.47H832.9V77.8q-12.14,0-22.62,13.54l-.77,1-21,26.89,34.26,48.9a30.16,30.16,0,0,0,6,6.65,9.59,9.59,0,0,0,5.79,2.19h2.59v8.17H779.84V177c4.27-.32,7.16-.77,8.65-1.41a3.1,3.1,0,0,0,2.24-3c0-1-1-3-3.07-5.87l-.16-.24Z"/><path class="cls-4" d="M451.83,69.46l1.28,41.66h-7.85q-4.53-18.23-13.81-25.61c-6.2-4.94-25.46-7.4-37.83-7.4-5.26,0-8.52.53-9.8,1.63s-1.92,3.44-1.92,7v34.26h2.27c6.92,0,12.1-1.66,15.49-5s5.82-9.08,7.24-17.31h8v53h-8q-2.12-12.18-7.24-17.15c-3.39-3.31-8.57-5-15.49-5h-2.27v38.64c0,3.5.56,5.77,1.66,6.78s3.23,1.52,6.41,1.52h11.48v8.49H337.2v-8.49h8.15c3.23,0,5.39-.53,6.52-1.58s1.68-3.29,1.68-6.73V86.26c0-3.5-.56-5.79-1.68-6.86s-3.28-1.6-6.52-1.6H337.2V69.46Z"/><path class="cls-4" d="M456.56,174.8v-7H463c2.61,0,4.36-.44,5.27-1.29s1.36-2.7,1.36-5.52V93.65c0-2.87-.45-4.76-1.36-5.63S465.63,86.7,463,86.7h-6.46V79.86h84.52l1,34.19h-6.35q-3.4-15.15-11-21.32t-22.71-6.16c-4.26,0-6.89.46-7.93,1.36s-1.56,2.81-1.56,5.72V122.2h1.84c5.6,0,9.79-1.36,12.53-4.08s4.71-7.45,5.86-14.2h6.48v43.52h-6.48q-1.72-10-5.86-14.07c-2.74-2.72-6.94-4.08-12.53-4.08H492.6V161c0,2.91.56,4.84,1.69,5.76s3.85,1.38,8.19,1.38q16.5,0,24.67-6.66t12-22.86l6.48.5-1.71,35.66Z"/><path class="cls-4" d="M554.15,174.8V168q8-.76,10.87-4.05t2.87-13V93.89l-2.46-2.56a13.46,13.46,0,0,0-4.67-3.79,14.11,14.11,0,0,0-5.21-.83h-1.4V79.86h32.67L636.21,139v-35.5q0-10.19-3.18-13.48T620.78,86.7l-.06-6.84H658.9V86.7c-5.23.26-8.77,1.47-10.61,3.66s-2.74,6.57-2.74,13.15v72.61h-8.17l-61.06-73.37V151c0,6.6,1.06,11,3.2,13.32s6.07,3.51,11.84,3.68v6.84Z"/><path class="cls-4" d="M717.84,79.86V86.7h-7.41q-3.79,0-5.12,1.32c-.89.88-1.34,2.76-1.34,5.63V161c0,2.87.43,4.73,1.3,5.57s2.59,1.25,5.16,1.25h7.41v7H666.9v-7H674c2.61,0,4.36-.44,5.25-1.29s1.34-2.7,1.34-5.52V93.65c0-2.87-.45-4.76-1.34-5.63S676.66,86.7,674,86.7H666.9V79.86Z"/><path class="cls-3" d="M463.41,207.33v6a3.06,3.06,0,0,0,.36,1.65,1.63,1.63,0,0,0,.93.73,4.59,4.59,0,0,0,1.32.17v.39h-9.48v-.39a3.62,3.62,0,0,0,1.71-.4c.5-.27.75-.88.75-1.84V199.5a2.75,2.75,0,0,0-.6-2,2.58,2.58,0,0,0-1.86-.58v-.39H467a6.88,6.88,0,0,1,3.57.83,4.82,4.82,0,0,1,2,2,5.85,5.85,0,0,1,.58,2.52,4.82,4.82,0,0,1-.64,2.57,5.44,5.44,0,0,1-1.48,1.63,6.8,6.8,0,0,1-2.15,1,11.73,11.73,0,0,1-3.17.34,20.22,20.22,0,0,1-2.31-.17Zm0-9.59v8.52a6.24,6.24,0,0,0,1.3.15,3.65,3.65,0,0,0,3.68-2.5,6.52,6.52,0,0,0,.36-2.12,5.08,5.08,0,0,0-.4-2,3.35,3.35,0,0,0-1.32-1.52,4.32,4.32,0,0,0-2.38-.59,7.63,7.63,0,0,0-1.23.12Zm38.13,9.3h-.63v6.34a3.34,3.34,0,0,0,.33,1.69,1.51,1.51,0,0,0,.82.71,4.79,4.79,0,0,0,1.29.18v.36h-9.3v-.39c1,0,1.71-.23,2-.7a3.42,3.42,0,0,0,.44-1.86V199.5a2.81,2.81,0,0,0-.58-2,2.55,2.55,0,0,0-1.87-.58v-.39h10.27a9.25,9.25,0,0,1,3.56.63,5.11,5.11,0,0,1,2.34,1.78,4.52,4.52,0,0,1,.81,2.65,4.36,4.36,0,0,1-1.89,3.69,6.8,6.8,0,0,1-1.93.92,8.93,8.93,0,0,1,2.69,3.1l2.37,4a10.34,10.34,0,0,0,1.12,1.61,3.08,3.08,0,0,0,.9.75,3.15,3.15,0,0,0,.85.25v.39h-6.39q-.93-1.68-1.42-2.67-1.59-3.11-2.32-4.32a5.68,5.68,0,0,0-1.5-1.75,3.39,3.39,0,0,0-2-.54Zm.44-9.42h-1.08v8.32h.9a4.91,4.91,0,0,0,3.49-1.11,4.18,4.18,0,0,0,1.17-3.19,4.37,4.37,0,0,0-.5-2.18,3.27,3.27,0,0,0-1.51-1.37,5.81,5.81,0,0,0-2.47-.47Zm47.93-1.1.16,4.43h-.39a10.36,10.36,0,0,0-.6-1.84,2.52,2.52,0,0,0-.94-1.11,3.09,3.09,0,0,0-1.65-.38h-4v8.32h3.18a2.9,2.9,0,0,0,2.08-.63,2.84,2.84,0,0,0,.76-1.87h.39v5.8h-.39a2.28,2.28,0,0,0-1-1.76,3.68,3.68,0,0,0-1.86-.45h-3.18v5.7q0,2.47,2.56,2.47h1.21a5.21,5.21,0,0,0,2-.32,2.8,2.8,0,0,0,1.28-1.11,8.46,8.46,0,0,0,.9-2.23h.39l-.29,4.76H535.63v-.39c1,0,1.71-.23,2-.71a3.33,3.33,0,0,0,.46-1.85V199.5a3.72,3.72,0,0,0-.42-1.84c-.28-.5-.92-.75-1.92-.75h-.13v-.39Zm46.84,0v.39a7,7,0,0,0-1.28.19,1.51,1.51,0,0,0-.84.65,2.33,2.33,0,0,0-.24,1.5l1.09,13.3a7.31,7.31,0,0,0,.4,2.06,1.71,1.71,0,0,0,.69.9,5.13,5.13,0,0,0,1.29.43v.39h-9.09v-.39a2.17,2.17,0,0,0,2.31-2.89l-1-12.61h-.06l-6.47,15.89h-.47L576.46,201h-.05l-.88,11a5.52,5.52,0,0,0,.23,2.49,2,2,0,0,0,1,1.13,4.17,4.17,0,0,0,1.39.32v.39h-6.72v-.39a2.4,2.4,0,0,0,1.93-1,7,7,0,0,0,.88-3.13l1.33-12.53a4.77,4.77,0,0,0-3.41-2.34v-.39h7.15l5.73,13,5.31-13Zm21.53.36v-.36h9.3v.39q-1.54,0-2,.71a3.44,3.44,0,0,0-.45,1.86v13.9a5.47,5.47,0,0,0,.12,1.18,1.76,1.76,0,0,0,.64,1,2.48,2.48,0,0,0,1.58.42h.11v.39h-9.3v-.39c1,0,1.68-.23,2-.7a3.34,3.34,0,0,0,.46-1.86v-13.9a2.77,2.77,0,0,0-.6-2,2.51,2.51,0,0,0-1.85-.61Zm45.82,19.44v-3.75h-.06a6.93,6.93,0,0,1-6.44,4,7.47,7.47,0,0,1-3.88-1A6.52,6.52,0,0,1,651.2,213a11.54,11.54,0,0,1-.86-5.15v-8.34a3.1,3.1,0,0,0-.5-1.91,2.34,2.34,0,0,0-1.94-.65v-.39h9.3v.39c-1,0-1.68.23-2,.7a3.36,3.36,0,0,0-.46,1.87v8.83a8.12,8.12,0,0,0,.47,3.08,4,4,0,0,0,.95,1.41,4.19,4.19,0,0,0,1.43.9,4.74,4.74,0,0,0,1.7.31,4.87,4.87,0,0,0,3.3-1.28,4.18,4.18,0,0,0,1-1.4,9.86,9.86,0,0,0,.49-3.6v-8.26a2.85,2.85,0,0,0-.56-2,2.52,2.52,0,0,0-1.88-.59v-.36H671v.39a2.28,2.28,0,0,0-2,.68,3.35,3.35,0,0,0-.46,1.89v13.9a3,3,0,0,0,.52,2A2.4,2.4,0,0,0,671,216v.36Zm52.65-19.8v.39a7,7,0,0,0-1.29.19,1.51,1.51,0,0,0-.84.65,2.33,2.33,0,0,0-.24,1.5l1.09,13.3a7.31,7.31,0,0,0,.4,2.06,1.71,1.71,0,0,0,.69.9,5.13,5.13,0,0,0,1.29.43v.39h-9.09v-.39a2.17,2.17,0,0,0,2.31-2.89l-1-12.61h-.05l-6.47,15.89h-.47L696.45,201h-.05l-.88,11a5.52,5.52,0,0,0,.23,2.49,2,2,0,0,0,1,1.13,4.17,4.17,0,0,0,1.39.32v.39h-6.72v-.39a2.4,2.4,0,0,0,1.93-1,7,7,0,0,0,.88-3.13l1.33-12.53a4.78,4.78,0,0,0-3.41-2.34v-.39h7.15l5.73,13,5.31-13Z"/><path class="cls-2" d="M264.5,143a121.26,121.26,0,0,1-50.28,98.43c-1.15.85-2.33,1.67-3.51,2.46a120.19,120.19,0,0,1-12.35,7.29c-1.59.81-3.19,1.59-4.82,2.34a120.49,120.49,0,0,1-29,9.08h0A121.51,121.51,0,1,1,264.5,143Z"/><g class="cls-5"><path class="cls-6" d="M286,143c0-31.18-27.91-58.45-69.61-73.39C201.45,27.91,174.18,0,143,0S84.55,27.91,69.61,69.61C27.91,84.55,0,111.82,0,143s27.91,58.45,69.61,73.39C84.55,258.09,111.82,286,143,286s58.45-27.91,73.39-69.61C258.09,201.45,286,174.18,286,143ZM143,284c-3.11,0-6.46-3.5-9.69-10.11-3.44-7.05-6.54-17.2-9.22-30.17-1.05-5.09-2-10.51-2.88-16.2,7.1.65,14.38,1,21.78,1s14.68-.34,21.78-1c-.87,5.69-1.83,11.1-2.88,16.2-2.68,13-5.78,23.12-9.22,30.17C149.46,280.5,146.11,284,143,284Zm0-57.5c-7.51,0-14.88-.35-22.08-1a525.31,525.31,0,0,1-4.81-53.5c8.71.34,17.7.52,26.89.52s18.18-.18,26.89-.52a525.31,525.31,0,0,1-4.81,53.5C157.88,226.15,150.51,226.5,143,226.5ZM59.5,143c0-7.51.35-14.88,1-22.08a525.31,525.31,0,0,1,53.5-4.81c-.34,8.71-.52,17.7-.52,26.89s.18,18.18.52,26.89a525.31,525.31,0,0,1-53.5-4.81C59.85,157.88,59.5,150.51,59.5,143Zm-1,21.78c-5.69-.87-11.1-1.83-16.2-2.88-13-2.68-23.12-5.78-30.17-9.22C5.5,149.46,2,146.11,2,143s3.5-6.46,10.11-9.69c7.05-3.44,17.2-6.54,30.17-9.22,5.09-1.05,10.51-2,16.2-2.88-.65,7.1-1,14.38-1,21.78S57.84,157.68,58.49,164.78ZM143,2c3.11,0,6.46,3.5,9.69,10.11,3.44,7.05,6.54,17.2,9.22,30.17,1.05,5.09,2,10.51,2.88,16.2-7.1-.65-14.38-1-21.78-1s-14.68.34-21.78,1c.87-5.69,1.83-11.1,2.88-16.2,2.68-13,5.78-23.12,9.22-30.17C136.54,5.5,139.89,2,143,2Zm0,57.5c7.51,0,14.88.35,22.08,1a525.31,525.31,0,0,1,4.81,53.5c-8.71-.34-17.7-.52-26.89-.52s-18.18.18-26.89.52a525.31,525.31,0,0,1,4.81-53.5C128.12,59.85,135.49,59.5,143,59.5Zm24.13,1.23a208.11,208.11,0,0,1,47.7,10.45,208.11,208.11,0,0,1,10.45,47.7,532.61,532.61,0,0,0-53.37-4.77A532.61,532.61,0,0,0,167.13,60.73ZM170.5,143c0,9.16-.18,18.17-.53,27-8.8.35-17.82.53-27,.53s-18.17-.18-27-.53c-.35-8.8-.53-17.82-.53-27s.18-18.17.53-27c8.8-.35,17.82-.53,27-.53s18.17.18,27,.53C170.32,124.83,170.5,133.84,170.5,143Zm-56.4-28.9a532.61,532.61,0,0,0-53.37,4.77,208.11,208.11,0,0,1,10.45-47.7,208.11,208.11,0,0,1,47.7-10.45A532.61,532.61,0,0,0,114.1,114.1Zm0,57.79a532.61,532.61,0,0,0,4.77,53.37,208.11,208.11,0,0,1-47.7-10.45,208.11,208.11,0,0,1-10.45-47.7A532.61,532.61,0,0,0,114.1,171.9Zm57.79,0a532.61,532.61,0,0,0,53.37-4.77,208.11,208.11,0,0,1-10.45,47.7,208.11,208.11,0,0,1-47.7,10.45A532.61,532.61,0,0,0,171.9,171.9Zm.08-2c.34-8.71.52-17.7.52-26.89s-.18-18.18-.52-26.89a525.31,525.31,0,0,1,53.5,4.81c.67,7.2,1,14.57,1,22.08s-.35,14.88-1,22.08A525.31,525.31,0,0,1,172,169.89Zm55.54-48.67c5.69.87,11.1,1.83,16.2,2.88,13,2.68,23.12,5.78,30.17,9.22C280.5,136.54,284,139.89,284,143s-3.5,6.46-10.11,9.69c-7.05,3.44-17.2,6.54-30.17,9.22-5.09,1.05-10.51,2-16.2,2.88.65-7.1,1-14.38,1-21.78S228.16,128.32,227.51,121.22Zm56.2,16.5c-6.65-7.59-27.38-14.17-56.4-18.54A211,211,0,0,0,217.25,72C254.91,85.92,280.77,110,283.71,137.72ZM214,68.75a211,211,0,0,0-47.13-10.06c-4.38-29-11-49.75-18.54-56.4C176,5.23,200.08,31.09,214,68.75ZM137.72,2.29c-7.59,6.65-14.17,27.38-18.54,56.4A211,211,0,0,0,72,68.75C85.92,31.09,110,5.23,137.72,2.29ZM68.75,72a211,211,0,0,0-10.06,47.13c-29,4.38-49.75,11-56.4,18.54C5.23,110,31.09,85.92,68.75,72ZM2.29,148.28c6.65,7.59,27.38,14.17,56.4,18.54A211,211,0,0,0,68.75,214C31.09,200.08,5.23,176,2.29,148.28Zm69.76,69a211,211,0,0,0,47.13,10.06c4.38,29,11,49.75,18.54,56.4C110,280.77,85.92,254.91,72,217.25Zm76.24,66.46c7.59-6.65,14.17-27.38,18.54-56.4A211,211,0,0,0,214,217.25C200.08,254.91,176,280.77,148.28,283.71Zm69-69.76a211,211,0,0,0,10.06-47.13c29-4.38,49.75-11,56.4-18.54C280.77,176,254.91,200.08,217.25,214Z"/></g><path class="cls-7" d="M106,42.8S81.34,57.26,78.25,70.24s-.35,22,3.44,29.06S95,116.08,95,116.08,80,86.67,86.64,70.24,106,42.8,106,42.8Z"/><path class="cls-7" d="M197.86,50.67s9.34,13,12.35,27,1.33,29.76,1.33,29.76,10-14,5.19-31.51A43.64,43.64,0,0,0,197.86,50.67Z"/><path class="cls-7" d="M223.64,71.89a61.12,61.12,0,0,1,7.23,19.51,48,48,0,0,1-.56,18.88s7.86-10.6,4.42-23.44S223.64,71.89,223.64,71.89Z"/><path class="cls-7" d="M72.67,66.91s-9.9,36.57,13.27,54,27.93,17.06,27.93,17.06a40.76,40.76,0,0,0-7,22.39c.07,12.84,4,20.17,4,20.17-24.35-8.78-49.53-26.87-57.73-52.24-5.76-17.83-.7-22.88-.7-22.88,2.7,13.86,9.87,25.45,22.6,32.15,0,0-17.13-22.18-15-42.53S72.67,66.91,72.67,66.91Z"/><path class="cls-7" d="M114.92,188.9c-32.39-9.41-38.84-21.61-60.08-44.5,0,0,6.67,23.79,30.67,40.5s36.78,20.85,36.78,20.85A49.93,49.93,0,0,1,114.92,188.9Z"/><path class="cls-7" d="M127.62,84.46s8.49,10.25,9.19,20.21c1.75,24.8-13.29,24.93-19.41,47.94-3.51,13.2,1,26.6,3.37,33.13s10.18,18,11.93,19.65,4.77,1.68,10.67.91,4.91-2.25,4.91-2.25-1.19-10.74,2.11-20.35,6.46-9.26,6.46-9.26-4,10-3.65,17.62,2.32,13.76,3.44,13.69a30,30,0,0,1,3.79.28s1.68-12.49,9.4-19.09c27.17-23.22,57.89-33.13,56.71-82-.35-14.53-4-22-4-22,2.06,26.47-27.44,67.09-41.9,62,0,0,24.22-16.07,26-32.5S204.16,77,204.16,77s3.51,34.81-27.37,54.32-37.34,34-37.34,34,8.28-21.69,16.78-27.65,11.86-9.41,12.14-13.76c1.77-27.39-16.66-29.94-39.59-40.36C128,83.2,127.62,84.46,127.62,84.46Z"/><path class="cls-7" d="M214.22,241.43c-1.15.85-2.33,1.67-3.51,2.46l-1.1-.46c-8.19-3.38-11.91-6.47-24.8-8.3s-24.07-12.44-27.39-16.62-5.36-10.25-5.49-10.63c.43.37,13.78,12.34,22.79,15.67,9.17,3.38,15.7,3.9,23.72,7.51C202,232.66,208.33,237,214.22,241.43Z"/><path class="cls-7" d="M181.36,258.32a121.06,121.06,0,0,1-16.84,4.28h0l-8.69-7.38c-12.64-12.65-23.56-28.62-21.66-47.27,0,0,15.82,27.62,28.08,35.87A204.45,204.45,0,0,1,181.36,258.32Z"/><path class="cls-7" d="M198.36,251.18c-1.59.81-3.19,1.59-4.82,2.34-5.8-3.81-9.63-7-20.47-10.29-12.45-3.81-21.85-16-24.49-20.65s-3.79-11.38-3.79-11.38,11.57,14.28,20.11,19,14.9,6.27,22.27,11.07C189.87,243.07,194.09,247,198.36,251.18Z"/></g></g></svg>